<?xml version="1.0" encoding="UTF-8" standalone="no"?>
<!-- Created with Inkscape (http://www.inkscape.org/) -->

<svg
   width="110.42868mm"
   height="20.775024mm"
   viewBox="0 0 110.42868 20.775024"
   version="1.1"
   id="svg1"
   xmlns="http://www.w3.org/2000/svg"
   xmlns:svg="http://www.w3.org/2000/svg">
  <defs
     id="defs1">
    <linearGradient
       id="swatch5">
      <stop
         style="stop-color:#000000;stop-opacity:0;"
         offset="0"
         id="stop5" />
    </linearGradient>
    <rect
       x="283.46457"
       y="113.38582"
       width="472.44095"
       height="113.38582"
       id="rect2-5-6-1-4-7-8-5-4-7-8-1-11-8-1" />
    <rect
       x="283.46457"
       y="113.38582"
       width="472.44095"
       height="113.38582"
       id="rect2-5-6-7-8-8-4-2-1-4" />
  </defs>
  <g
     id="layer1"
     transform="translate(-229.61183,-219.61303)">
    <path
       id="text2-2-2-9-4-7-4-0-6-2"
       style="font-size:85.8651px;line-height:0.9;font-family:Noka;-inkscape-font-specification:Noka;text-align:start;letter-spacing:-8.83748px;writing-mode:lr-tb;direction:ltr;white-space:pre;shape-inside:url(#rect2-5-6-7-8-8-4-2-1-4);display:inline;fill:none;fill-opacity:1;stroke:#000000;stroke-width:0.776;stroke-linecap:round;stroke-linejoin:round;stroke-dasharray:none;stroke-opacity:1;paint-order:normal"
       d="m 301.78576,222.22175 c -3.95953,0.0782 -7.13271,1.91058 -8.83413,4.76331 -0.0748,0.12549 -0.13226,0.11067 -0.13226,-0.0354 v -4.10621 c 0,-0.14612 -0.11846,-0.26458 -0.26458,-0.26458 h -6.51434 c -0.14612,0 -0.26458,0.11846 -0.26458,0.26458 v 4.07159 c 0,0.14612 -0.0585,0.16151 -0.13492,0.037 -1.6239,-2.64461 -4.63725,-4.30255 -8.72865,-4.37097 -0.1461,-0.002 -0.38302,-0.002 -0.52914,-0.002 h -6.07922 -0.92345 -6.12056 c -0.14612,0 -0.26458,0.11846 -0.26458,0.26458 v 11.21896 c 0,0.14612 0.002,0.38344 -0.0137,0.52869 -0.0788,0.74288 -0.49322,1.29243 -1.13696,1.40931 -0.14358,0.0261 -0.38285,0.0261 -0.52643,0 -0.64375,-0.11688 -1.0582,-0.66642 -1.13697,-1.40931 -0.0154,-0.14525 -0.0137,-0.38257 -0.0137,-0.52869 V 222.8434 c 0,-0.14612 -0.11846,-0.26458 -0.26458,-0.26458 h -5.33353 -1.1808 -10.31255 -0.97462 -7.79126 c -0.14612,0 -0.38307,-4.1e-4 -0.52913,0.004 -3.73554,0.10432 -6.14149,2.42283 -6.26064,5.79861 -0.005,0.14603 -0.005,0.38303 0,0.52906 0.11915,3.37578 2.5251,5.69431 6.26064,5.79862 0.14607,0.004 0.38301,0.004 0.52913,0.004 l 0.60204,0 c 0.14612,0 0.38384,-0.003 0.52832,0.018 0.44134,0.0643 0.66403,0.292 0.74852,0.54455 0.0462,0.13797 0.046,0.38305 -0.005,0.51922 -0.0892,0.23896 -0.31748,0.4596 -0.76941,0.52095 -0.14467,0.0196 -0.38228,0.0168 -0.5284,0.0168 h -6.72001 c -0.14612,0 -0.26458,0.11846 -0.26458,0.26458 v 4.99816 c 0,0.14612 0.11846,0.26458 0.26458,0.26458 h 8.51939 c 0.14612,0 0.38307,4.2e-4 0.52913,-0.004 3.80634,-0.10971 6.19217,-2.58997 6.31173,-5.92717 0.005,-0.14603 0.005,-0.38303 -7e-5,-0.52906 -0.12039,-3.31295 -2.50604,-5.79166 -6.31166,-5.90133 -0.14606,-0.004 -0.38301,-0.004 -0.52913,-0.004 l -0.44753,0 c -0.14612,0 -0.38393,0.003 -0.52822,-0.0191 -0.33393,-0.0514 -0.56224,-0.20324 -0.65996,-0.41839 -0.0599,-0.13177 -0.0607,-0.38101 -0.004,-0.51454 0.0955,-0.22433 0.32566,-0.37027 0.66439,-0.41845 0.14417,-0.0205 0.38154,-0.0175 0.52766,-0.0175 l 5.33405,0 h 0.97462 1.75028 c 0.14612,0 0.26458,0.11846 0.26458,0.26458 v 13.22401 c 0,0.14612 0.11846,0.26458 0.26458,0.26458 h 6.51433 c 0.14612,0 0.26458,-0.11846 0.26458,-0.26458 v -13.22401 c 0,-0.14612 0.11846,-0.26458 0.26458,-0.26458 h 0.98962 c 0.14612,0 0.26458,0.11846 0.26458,0.26458 v 5.38314 c 0,0.14612 -3.4e-4,0.38306 0.003,0.52914 0.11317,4.79821 3.31272,7.82767 8.18971,7.93313 0.14608,0.003 0.38302,0.003 0.52911,3e-5 3.29896,-0.0706 5.81696,-1.46617 7.1447,-3.83471 0.0714,-0.12743 0.12517,-0.11457 0.12517,0.0316 v 3.18173 c 0,0.14612 0.11846,0.26458 0.26458,0.26458 h 7.02851 c 0.14612,0 0.38305,2.5e-4 0.52915,-0.002 4.065,-0.0704 7.07965,-1.76543 8.705,-4.47345 0.0752,-0.1253 0.13272,-0.11044 0.13272,0.0357 v 4.17547 c 0,0.14612 0.11846,0.26458 0.26458,0.26458 h 6.51434 c 0.14612,0 0.26458,-0.11846 0.26458,-0.26458 v -4.21732 c 0,-0.14612 0.0565,-0.16045 0.13019,-0.0342 1.70092,2.91409 4.87506,4.79303 8.83621,4.87315 0.14609,0.003 0.38303,0.003 0.52913,2e-5 5.935,-0.11905 10.0935,-4.24321 10.22068,-9.83554 0.003,-0.14608 0.003,-0.38304 -1.1e-4,-0.52912 -0.12944,-5.49016 -4.28727,-9.51375 -10.22057,-9.62993 -0.1461,-0.003 -0.38304,-0.003 -0.52914,2e-5 z m -25.61861,6.52672 h 0.0362 c 0.14612,0 0.38312,-7.6e-4 0.52907,0.006 1.9973,0.0949 3.08176,1.2767 3.17386,3.14829 0.007,0.14592 0.007,0.383 -1.7e-4,0.52892 -0.0922,1.82679 -1.15469,3.0263 -3.14788,3.12282 -0.14593,0.007 -0.38292,0.006 -0.52904,0.006 h -0.062 c -0.14612,0 -0.26458,-0.11846 -0.26458,-0.26458 v -6.28334 c 0,-0.14612 0.11846,-0.26458 0.26458,-0.26458 z m 26.14759,0.0341 c 1.81416,0.11468 2.98873,1.41205 3.0954,3.17207 0.009,0.14583 0.009,0.38301 -1.9e-4,0.52884 -0.1079,1.73914 -1.28221,3.05548 -3.09534,3.17194 -0.14573,0.009 -0.38289,0.009 -0.52868,-2.2e-4 -1.78988,-0.11788 -2.96169,-1.43376 -3.06939,-3.17192 -0.009,-0.14571 -0.009,-0.38281 -1.8e-4,-0.52864 0.10654,-1.75898 1.27867,-3.05585 3.06957,-3.17186 0.14579,-0.009 0.383,-0.009 0.52881,-2.1e-4 z"
       transform="translate(2.4833714,-2.2185268)" />
    <path
       id="text2-2-2-0-5-3-0-8-5-2-4-2-7-3-2-61-5-4"
       style="font-style:normal;font-variant:normal;font-weight:normal;font-stretch:normal;font-size:85.8651px;line-height:0.9;font-family:'Instrument Serif';-inkscape-font-specification:'Instrument Serif, Normal';font-variant-ligatures:normal;font-variant-caps:normal;font-variant-numeric:normal;font-variant-east-asian:normal;text-align:start;letter-spacing:-0.840884px;writing-mode:lr-tb;direction:ltr;white-space:pre;shape-inside:url(#rect2-5-6-1-4-7-8-5-4-7-8-1-11-8-1);display:inline;fill:#000000;fill-opacity:1;stroke-width:0.176389"
       d="m 322.25824,219.92565 c -1.07021,0 -1.97115,0.24946 -2.70246,0.74889 -0.73131,0.49943 -1.28444,1.15043 -1.65901,1.95308 -0.35674,0.80267 -0.53472,1.6681 -0.53472,2.59561 v 0.16027 c 0,0.64212 -0.41928,1.00768 -1.25763,1.09687 -0.21403,0.0178 -0.32101,0.11619 -0.32101,0.29455 0,0.17836 0.10698,0.2676 0.32101,0.2676 H 316.72 c 0.42809,0 0.64205,0.21396 0.64205,0.64204 v 10.46137 c 0,0.37457 -0.0624,0.65089 -0.18723,0.82927 -0.12484,0.16053 -0.41029,0.25839 -0.85622,0.29406 l -0.53519,0.0539 c -0.23188,0.0179 -0.34797,0.12481 -0.34797,0.32102 0,0.19621 0.13385,0.29407 0.4014,0.29407 h 4.682 c 0.26755,0 0.40139,-0.10698 0.40139,-0.32102 0,-0.16053 -0.0979,-0.2584 -0.29406,-0.29407 l -0.66899,-0.0804 c -0.30323,-0.0357 -0.50855,-0.13402 -0.61557,-0.29455 -0.10702,-0.16054 -0.16028,-0.42774 -0.16028,-0.80232 v -10.78233 c 0,-0.21404 0.10699,-0.32102 0.32103,-0.32102 h 4.12034 c 0.24972,0 0.37445,0.12472 0.37445,0.37444 v 10.72896 c 0,0.37458 -0.0624,0.64178 -0.18723,0.80232 -0.12485,0.1427 -0.4103,0.24967 -0.85622,0.32102 l -0.32102,0.0539 c -0.23188,0.0536 -0.34797,0.16049 -0.34797,0.32102 0,0.19621 0.13384,0.29406 0.40139,0.29406 h 4.33838 0.12994 4.63244 c 0.21404,0 0.32102,-0.0978 0.32102,-0.29406 0,-0.17837 -0.0979,-0.28535 -0.29407,-0.32102 l -0.61557,-0.0804 c -0.37457,-0.0536 -0.62404,-0.15186 -0.74889,-0.29455 -0.10703,-0.16054 -0.16076,-0.42774 -0.16076,-0.80232 v -17.57823 c 0,-0.28539 -0.0979,-0.42835 -0.29406,-0.42835 -0.1427,0 -0.35666,0.0892 -0.64204,0.2676 -0.23188,0.14269 -0.52644,0.28566 -0.88318,0.42835 -0.35674,0.14269 -0.78465,0.26742 -1.28408,0.37444 -0.19621,0.0357 -0.29456,0.14266 -0.29456,0.32102 0,0.17838 0.0983,0.28535 0.29456,0.32103 l 0.61509,0.0804 c 0.24971,0.0178 0.41953,0.0893 0.50872,0.21417 0.10702,0.12486 0.16027,0.34745 0.16027,0.66851 v 15.33108 c 0,0.37458 -0.0892,0.64178 -0.2676,0.80232 -0.17836,0.16053 -0.45469,0.26751 -0.82926,0.32102 l -0.25461,0.0366 -0.52557,-0.063 c -0.30322,-0.0357 -0.50806,-0.13402 -0.61509,-0.29455 -0.10702,-0.16054 -0.16075,-0.42775 -0.16075,-0.80232 v -11.21074 c 0,-0.42808 -0.21396,-0.64204 -0.64205,-0.64204 h -5.67202 c -0.21404,0 -0.32103,-0.10698 -0.32103,-0.32102 v -1.81928 c 0,-0.90968 0.1161,-1.61441 0.34798,-2.11384 0.24972,-0.49943 0.56154,-0.84724 0.93611,-1.04344 0.39241,-0.1962 0.8117,-0.29407 1.25762,-0.29407 0.51727,0 0.90058,0.12473 1.15028,0.37444 0.24972,0.24972 0.44594,0.54379 0.58863,0.8827 0.16053,0.32106 0.33035,0.6065 0.50873,0.85621 0.17836,0.24972 0.45469,0.37493 0.82926,0.37493 0.37457,0 0.64226,-0.0983 0.8028,-0.29455 0.17837,-0.21405 0.26711,-0.49037 0.26711,-0.82927 0,-0.57078 -0.32958,-1.07017 -0.98953,-1.49826 -0.65996,-0.42809 -1.53403,-0.64204 -2.62208,-0.64204 z m 16.23015,0.14438 c -0.23188,0 -0.42809,0.0359 -0.58862,0.10733 -0.16054,0.0713 -0.32988,0.17833 -0.50825,0.32103 l -3.85276,2.99652 c -0.28538,0.19621 -0.3655,0.39242 -0.24064,0.58862 0.10702,0.19621 0.31186,0.2317 0.61509,0.10685 l 4.7624,-2.16726 c 0.32106,-0.1427 0.5355,-0.29429 0.64252,-0.45482 0.12486,-0.17837 0.18722,-0.38321 0.18722,-0.61509 0,-0.21404 -0.0892,-0.41025 -0.26759,-0.58863 -0.17837,-0.1962 -0.42832,-0.29455 -0.74937,-0.29455 z m -1.97958,5.99305 c -0.87399,0 -1.66796,0.3032 -2.38142,0.90965 -0.71348,0.60645 -1.27524,1.44502 -1.68549,2.51523 -0.41025,1.07021 -0.61558,2.30984 -0.61558,3.71895 0,1.37344 0.19621,2.58619 0.58863,3.63856 0.41024,1.03454 0.95426,1.83713 1.63206,2.40791 0.6778,0.57078 1.44489,0.85622 2.30106,0.85622 0.89185,0 1.64983,-0.31182 2.27411,-0.93611 0.62429,-0.64213 1.07908,-1.75702 1.36446,-3.3445 0.0536,-0.35674 -0.0266,-0.5352 -0.24064,-0.5352 -0.17837,0 -0.29446,0.0983 -0.34798,0.29455 -0.26755,1.14156 -0.61535,1.95278 -1.04343,2.43438 -0.42809,0.48159 -0.98074,0.72241 -1.65855,0.72241 -0.85616,0 -1.56089,-0.47253 -2.11383,-1.41788 -0.55295,-0.94535 -0.82927,-2.36344 -0.82927,-4.25414 0,-0.41024 0.17846,-0.61509 0.53519,-0.61509 h 5.08342 c 0.44593,0 0.669,-0.29456 0.669,-0.88317 0,-1.94421 -0.33006,-3.34455 -0.99002,-4.20072 -0.64212,-0.87401 -1.48933,-1.31105 -2.54172,-1.31105 z m -0.0269,0.66901 c 0.57077,0 0.9987,0.33005 1.2841,0.99001 0.28538,0.65996 0.42834,1.56953 0.42834,2.72893 0,0.89184 -0.4284,1.33799 -1.28458,1.33799 h -2.70197 c -0.30323,0 -0.43707,-0.14296 -0.40139,-0.42835 0.14268,-1.48046 0.44587,-2.62173 0.90963,-3.42439 0.4816,-0.80266 1.07023,-1.20419 1.76587,-1.20419 z" />
  </g>
</svg>
