<?xml version="1.0" encoding="UTF-8" standalone="no"?>
<!-- Created with Inkscape (http://www.inkscape.org/) -->

<svg
   width="22.203955mm"
   height="4.0943561mm"
   viewBox="0 0 22.203955 4.0943561"
   version="1.1"
   id="svg1"
   xmlns="http://www.w3.org/2000/svg"
   xmlns:svg="http://www.w3.org/2000/svg">
  <defs
     id="defs1">
    <linearGradient
       id="swatch5">
      <stop
         style="stop-color:#000000;stop-opacity:0;"
         offset="0"
         id="stop5" />
    </linearGradient>
    <rect
       x="283.46457"
       y="113.38582"
       width="472.44095"
       height="113.38582"
       id="rect2-5-6-1-4-7-8-5-4-7-8-1-11-8-6-6" />
    <rect
       x="283.46457"
       y="113.38582"
       width="472.44095"
       height="113.38582"
       id="rect2-5-6-7-8-8-4-2-1-3" />
  </defs>
  <g
     id="layer1"
     transform="translate(-258.10573,-296.28954)">
    <text
       xml:space="preserve"
       transform="matrix(0.06061987,0,0,0.06061987,240.83886,289.53368)"
       id="text2-2-2-9-4-7-4-0-6-3"
       style="font-size:85.8651px;line-height:0.9;font-family:Noka;-inkscape-font-specification:Noka;text-align:start;letter-spacing:-8.83748px;writing-mode:lr-tb;direction:ltr;white-space:pre;shape-inside:url(#rect2-5-6-7-8-8-4-2-1-3);display:inline;fill:#000000;fill-opacity:1;stroke-width:2.90976"
       x="-67.120132"
       y="0"><tspan
         x="283.46484"
         y="177.78554"
         id="tspan1">STUDIO</tspan></text>
    <path
       id="text2-2-2-0-5-3-0-8-5-2-4-2-7-3-9-9-8"
       style="font-style:normal;font-variant:normal;font-weight:normal;font-stretch:normal;font-size:85.8651px;line-height:0.9;font-family:'Instrument Serif';-inkscape-font-specification:'Instrument Serif, Normal';font-variant-ligatures:normal;font-variant-caps:normal;font-variant-numeric:normal;font-variant-east-asian:normal;text-align:start;letter-spacing:-0.840884px;writing-mode:lr-tb;direction:ltr;white-space:pre;shape-inside:url(#rect2-5-6-1-4-7-8-5-4-7-8-1-11-8-6-6);display:inline;fill:#000000;fill-opacity:1;stroke-width:0.176389"
       d="m 276.62858,296.28955 c -0.21484,0 -0.39571,0.0502 -0.54253,0.15044 -0.14681,0.10026 -0.25776,0.23095 -0.33296,0.39209 -0.0716,0.16114 -0.10744,0.33478 -0.10744,0.52099 v 0.0323 c 0,0.1289 -0.0842,0.20229 -0.25247,0.22019 -0.043,0.003 -0.0644,0.0233 -0.0644,0.0591 0,0.0358 0.0215,0.0536 0.0644,0.0536 h 0.12358 c 0.0859,0 0.12889,0.043 0.12889,0.12899 v 2.10008 c 0,0.0752 -0.0125,0.13076 -0.0376,0.16657 -0.0251,0.0322 -0.0824,0.0519 -0.17189,0.059 l -0.10745,0.0108 c -0.0465,0.003 -0.0699,0.0251 -0.0699,0.0645 0,0.0394 0.0269,0.059 0.0806,0.059 h 0.94004 c 0.0537,0 0.0806,-0.0215 0.0806,-0.0645 0,-0.0322 -0.0197,-0.052 -0.0591,-0.0591 l -0.13431,-0.016 c -0.0609,-0.007 -0.102,-0.0269 -0.12348,-0.0591 -0.0215,-0.0322 -0.0323,-0.086 -0.0323,-0.16117 v -2.16452 c 0,-0.043 0.0215,-0.0645 0.0644,-0.0645 h 0.82719 c 0.0501,0 0.0752,0.0251 0.0752,0.0753 v 2.15379 c 0,0.0752 -0.0125,0.12894 -0.0376,0.16117 -0.0251,0.0286 -0.0824,0.0501 -0.17188,0.0644 l -0.0645,0.0108 c -0.0465,0.0108 -0.0698,0.0323 -0.0698,0.0645 0,0.0394 0.0268,0.059 0.0805,0.059 h 0.87105 0.026 0.93008 c 0.043,0 0.0644,-0.0197 0.0644,-0.059 0,-0.0358 -0.0197,-0.0574 -0.0591,-0.0645 l -0.12349,-0.016 c -0.0752,-0.0107 -0.12537,-0.0305 -0.15044,-0.0591 -0.0215,-0.0322 -0.0322,-0.086 -0.0322,-0.16116 v -3.52882 c 0,-0.0573 -0.0197,-0.086 -0.0591,-0.086 -0.0286,0 -0.0716,0.0179 -0.1289,0.0537 -0.0465,0.0286 -0.10568,0.0573 -0.17729,0.0859 -0.0716,0.0287 -0.15753,0.0538 -0.25779,0.0753 -0.0394,0.007 -0.059,0.0287 -0.059,0.0645 0,0.0358 0.0196,0.0573 0.059,0.0644 l 0.12358,0.0162 c 0.0501,0.003 0.0841,0.0179 0.10203,0.0429 0.0215,0.0251 0.0322,0.0699 0.0322,0.1343 v 3.0777 c 0,0.0752 -0.0178,0.12894 -0.0536,0.16117 -0.0358,0.0322 -0.0914,0.0537 -0.16658,0.0645 l -0.0511,0.007 -0.10542,-0.0126 c -0.0609,-0.007 -0.10209,-0.0269 -0.12358,-0.0591 -0.0215,-0.0322 -0.0322,-0.086 -0.0322,-0.16117 v -2.25052 c 0,-0.0859 -0.043,-0.12889 -0.12899,-0.12889 h -1.13869 c -0.043,0 -0.0644,-0.0215 -0.0644,-0.0645 v -0.36523 c 0,-0.18262 0.0233,-0.3241 0.0698,-0.42436 0.0501,-0.10026 0.11274,-0.17009 0.18794,-0.20948 0.0788,-0.0394 0.16295,-0.059 0.25247,-0.059 0.10384,0 0.18089,0.025 0.23102,0.0752 0.0501,0.0501 0.0895,0.10917 0.11817,0.1772 0.0322,0.0645 0.0662,0.12176 0.10203,0.17189 0.0358,0.0501 0.0913,0.0752 0.16648,0.0752 0.0752,0 0.12894,-0.0197 0.16116,-0.059 0.0358,-0.043 0.0537,-0.0984 0.0537,-0.16648 0,-0.11459 -0.0663,-0.21484 -0.19875,-0.30078 -0.1325,-0.0859 -0.30797,-0.12899 -0.5264,-0.12899 z m 3.34225,0.0291 c -0.0506,0 -0.0934,0.007 -0.12851,0.0214 -0.0351,0.0143 -0.0721,0.0358 -0.11102,0.0644 l -0.84138,0.60167 c -0.0623,0.0394 -0.0798,0.0787 -0.0526,0.11806 0.0234,0.0394 0.0682,0.0466 0.1344,0.0216 l 1.03994,-0.43509 c 0.0701,-0.0286 0.11693,-0.0591 0.14029,-0.0913 0.0273,-0.0358 0.0409,-0.077 0.0409,-0.12358 0,-0.043 -0.0195,-0.0824 -0.0585,-0.11817 -0.0389,-0.0394 -0.0935,-0.059 -0.16358,-0.059 z m -0.43238,1.20313 c -0.19086,0 -0.36412,0.0609 -0.51992,0.18262 -0.15581,0.12174 -0.27855,0.2901 -0.36813,0.50494 -0.0896,0.21485 -0.13441,0.46372 -0.13441,0.7466 0,0.27573 0.0429,0.51919 0.12861,0.73046 0.0896,0.20769 0.20833,0.36881 0.35634,0.4834 0.14801,0.11459 0.31557,0.17189 0.50253,0.17189 0.19476,0 0.36021,-0.0627 0.49654,-0.18803 0.13633,-0.1289 0.23566,-0.35263 0.29798,-0.67133 0.0117,-0.0716 -0.006,-0.10744 -0.0526,-0.10744 -0.0389,0 -0.0643,0.0197 -0.0759,0.059 -0.0584,0.22917 -0.13435,0.39213 -0.22783,0.48881 -0.0935,0.0967 -0.21422,0.14503 -0.36224,0.14503 -0.18696,0 -0.34081,-0.0949 -0.46156,-0.28465 -0.12074,-0.18979 -0.18117,-0.47447 -0.18117,-0.85404 0,-0.0824 0.039,-0.12358 0.11692,-0.12358 h 1.11009 c 0.0974,0 0.14599,-0.059 0.14599,-0.17721 0,-0.39031 -0.072,-0.67143 -0.21614,-0.84331 -0.14022,-0.17546 -0.32528,-0.2632 -0.55509,-0.2632 z m -0.006,0.1343 c 0.12464,0 0.21807,0.0663 0.28039,0.19876 0.0623,0.13249 0.0935,0.31509 0.0935,0.54784 0,0.17905 -0.0935,0.26861 -0.28049,0.26861 h -0.59007 c -0.0662,0 -0.0954,-0.0287 -0.0876,-0.086 0.0312,-0.29721 0.0974,-0.52633 0.19866,-0.68747 0.10517,-0.16113 0.23371,-0.24175 0.38562,-0.24175 z" />
  </g>
</svg>
