<?xml version="1.0" encoding="UTF-8" standalone="no"?>
<!-- Created with Inkscape (http://www.inkscape.org/) -->

<svg
   width="110.68868mm"
   height="20.775169mm"
   viewBox="0 0 110.68868 20.775169"
   version="1.1"
   id="svg1"
   xmlns="http://www.w3.org/2000/svg"
   xmlns:svg="http://www.w3.org/2000/svg">
  <defs
     id="defs1">
    <rect
       x="283.46457"
       y="113.38582"
       width="472.44095"
       height="113.38582"
       id="rect2-5-6-1-4-7-8-5-4-7-8-1-11-8-1" />
    <rect
       x="283.46457"
       y="113.38582"
       width="472.44095"
       height="113.38582"
       id="rect2-5-6-7-8-8-4-2-1-4" />
  </defs>
  <g
     id="layer1"
     transform="translate(-229.8405,-304.38168)">
    <path
       id="text2-2-2-0-5-3-0-8-5-2-4-2-7-3-2-61-5-4-5"
       style="font-style:normal;font-variant:normal;font-weight:normal;font-stretch:normal;font-size:85.8651px;line-height:0.9;font-family:'Instrument Serif';-inkscape-font-specification:'Instrument Serif, Normal';font-variant-ligatures:normal;font-variant-caps:normal;font-variant-numeric:normal;font-variant-east-asian:normal;text-align:start;letter-spacing:-0.840884px;writing-mode:lr-tb;direction:ltr;white-space:pre;shape-inside:url(#rect2-5-6-1-4-7-8-5-4-7-8-1-11-8-1);display:inline;fill:#000000;fill-opacity:1;stroke-width:0.176388"
       d="m 322.31736,305.13393 c -1.09606,0 -2.01876,0.24297 -2.76773,0.72939 -0.74898,0.48642 -1.31547,1.12047 -1.69908,1.90221 -0.36536,0.78176 -0.54764,1.62465 -0.54764,2.52801 v 0.15609 c 0,0.6254 -0.4294,0.98144 -1.28801,1.0683 -0.2192,0.0173 -0.32876,0.11317 -0.32876,0.28688 0,0.17372 0.10956,0.26063 0.32876,0.26063 h 0.63045 c 0.43842,0 0.65756,0.20839 0.65756,0.62532 v 10.1889 c 0,0.36482 -0.0639,0.63394 -0.19175,0.80768 -0.12786,0.15634 -0.4202,0.25166 -0.8769,0.2864 l -0.54812,0.0525 c -0.23748,0.0174 -0.35638,0.12156 -0.35638,0.31266 0,0.1911 0.13708,0.28641 0.41111,0.28641 h 4.79507 c 0.27402,0 0.4111,-0.10419 0.4111,-0.31266 0,-0.15635 -0.10028,-0.25167 -0.30117,-0.28641 l -0.68514,-0.0783 c -0.31056,-0.0348 -0.52085,-0.13053 -0.63045,-0.28688 -0.1096,-0.15636 -0.16414,-0.4166 -0.16414,-0.78143 v -10.5015 c 0,-0.20846 0.10957,-0.31266 0.32877,-0.31266 h 4.21986 c 0.25575,0 0.3835,0.12147 0.3835,0.36469 v 10.44952 c 0,0.36483 -0.0639,0.62507 -0.19175,0.78143 -0.12787,0.13898 -0.42021,0.24316 -0.8769,0.31266 l -0.32877,0.0525 c -0.23749,0.0522 -0.35638,0.15631 -0.35638,0.31266 0,0.1911 0.13707,0.2864 0.41108,0.2864 h 4.44318 0.13307 4.74433 c 0.21921,0 0.32878,-0.0953 0.32878,-0.2864 0,-0.17372 -0.10027,-0.27792 -0.30118,-0.31266 l -0.63044,-0.0783 c -0.38361,-0.0522 -0.63911,-0.14791 -0.76698,-0.28688 -0.10961,-0.15636 -0.16463,-0.4166 -0.16463,-0.78143 v -17.1204 c 0,-0.27796 -0.10027,-0.41719 -0.30117,-0.41719 -0.14614,0 -0.36528,0.0869 -0.65755,0.26063 -0.23747,0.13897 -0.53915,0.27822 -0.90451,0.41719 -0.36537,0.13898 -0.80359,0.26046 -1.3151,0.36469 -0.20094,0.0348 -0.30167,0.13894 -0.30167,0.31266 0,0.17373 0.10068,0.27792 0.30167,0.31267 l 0.62995,0.0783 c 0.25575,0.0173 0.42966,0.087 0.521,0.2086 0.10961,0.1216 0.16415,0.3384 0.16415,0.65109 v 14.93178 c 0,0.36483 -0.0913,0.62507 -0.27407,0.78143 -0.18266,0.15635 -0.46566,0.26054 -0.84928,0.31266 l -0.26077,0.0356 -0.53826,-0.0614 c -0.31054,-0.0348 -0.52033,-0.13053 -0.62994,-0.28687 -0.10961,-0.15636 -0.16464,-0.41661 -0.16464,-0.78143 v -10.91869 c 0,-0.41693 -0.21912,-0.62532 -0.65756,-0.62532 h -5.80902 c -0.2192,0 -0.32877,-0.10419 -0.32877,-0.31266 v -1.7719 c 0,-0.88598 0.1189,-1.57236 0.35638,-2.05878 0.25575,-0.48642 0.57509,-0.82517 0.95872,-1.01626 0.40188,-0.19109 0.8313,-0.28642 1.28799,-0.28642 0.52977,0 0.92234,0.12149 1.17807,0.36469 0.25575,0.24322 0.4567,0.52963 0.60285,0.85971 0.1644,0.3127 0.33833,0.59071 0.52101,0.83391 0.18267,0.24322 0.46567,0.36517 0.84929,0.36517 0.38361,0 0.65777,-0.0957 0.82219,-0.28688 0.18268,-0.20848 0.27356,-0.4776 0.27356,-0.80767 0,-0.55592 -0.33754,-1.0423 -1.01343,-1.45924 -0.6759,-0.41694 -1.57108,-0.62532 -2.68541,-0.62532 z m 16.62217,0.14062 c -0.23749,0 -0.43843,0.035 -0.60284,0.10454 -0.16441,0.0694 -0.33785,0.17368 -0.52053,0.31267 l -3.94582,2.91847 c -0.29227,0.1911 -0.37432,0.3822 -0.24645,0.57329 0.1096,0.1911 0.3194,0.22567 0.62995,0.10407 l 4.87743,-2.11082 c 0.32882,-0.13898 0.54844,-0.28662 0.65804,-0.44297 0.12787,-0.17372 0.19175,-0.37323 0.19175,-0.59907 0,-0.20846 -0.0914,-0.39956 -0.27407,-0.5733 -0.18267,-0.19109 -0.43866,-0.28688 -0.76746,-0.28688 z m -2.0274,5.83696 c -0.8951,0 -1.70825,0.29531 -2.43894,0.88596 -0.73071,0.59066 -1.30603,1.40739 -1.7262,2.44972 -0.42016,1.04234 -0.63045,2.24968 -0.63045,3.62209 0,1.33767 0.20096,2.51883 0.60285,3.54379 0.42015,1.0076 0.97731,1.78929 1.67148,2.3452 0.69418,0.55591 1.47979,0.83392 2.35665,0.83392 0.91338,0 1.68966,-0.3037 2.32902,-0.91173 0.63938,-0.6254 1.10516,-1.71126 1.39742,-3.25739 0.0549,-0.34745 -0.0273,-0.52126 -0.24645,-0.52126 -0.18267,0 -0.30156,0.0957 -0.35639,0.28688 -0.27401,1.11182 -0.6302,1.90192 -1.06862,2.37097 -0.43843,0.46905 -1.00443,0.7036 -1.69862,0.7036 -0.87683,0 -1.59859,-0.46023 -2.16488,-1.38095 -0.5663,-0.92073 -0.8493,-2.30189 -0.8493,-4.14334 0,-0.39956 0.18278,-0.59907 0.54812,-0.59907 h 5.2062 c 0.4567,0 0.68516,-0.28689 0.68516,-0.86017 0,-1.89357 -0.33803,-3.25744 -1.01394,-4.09131 -0.65762,-0.85125 -1.5253,-1.27691 -2.60311,-1.27691 z m -0.0276,0.65159 c 0.58456,0 1.02283,0.32145 1.31512,0.96422 0.29227,0.64278 0.43868,1.52866 0.43868,2.65786 0,0.86861 -0.43875,1.30314 -1.3156,1.30314 h -2.76723 c -0.31056,0 -0.44763,-0.13924 -0.41109,-0.41719 0.14613,-1.4419 0.45665,-2.55345 0.93161,-3.3352 0.49322,-0.78176 1.09608,-1.17283 1.80851,-1.17283 z" />
    <path
       id="text2-2-2-9-4-7-4-0-6-2-1-2"
       style="font-size:85.8651px;line-height:0.9;font-family:Noka;-inkscape-font-specification:Noka;text-align:start;letter-spacing:-8.83748px;writing-mode:lr-tb;direction:ltr;white-space:pre;shape-inside:url(#rect2-5-6-7-8-8-4-2-1-4);display:inline;fill:#000000;fill-opacity:1;stroke:#000000;stroke-width:0.776;stroke-linecap:round;stroke-linejoin:round;stroke-dasharray:none;stroke-opacity:1;paint-order:normal"
       d="m 301.78576,222.22175 c -3.95953,0.0782 -7.13271,1.91058 -8.83413,4.76331 -0.0748,0.12549 -0.13226,0.11067 -0.13226,-0.0354 v -4.10621 c 0,-0.14612 -0.11846,-0.26458 -0.26458,-0.26458 h -6.51434 c -0.14612,0 -0.26458,0.11846 -0.26458,0.26458 v 4.07159 c 0,0.14612 -0.0585,0.16151 -0.13492,0.037 -1.6239,-2.64461 -4.63725,-4.30255 -8.72865,-4.37097 -0.1461,-0.002 -0.38302,-0.002 -0.52914,-0.002 h -6.07922 -0.92345 -6.12056 c -0.14612,0 -0.26458,0.11846 -0.26458,0.26458 v 11.21896 c 0,0.14612 0.002,0.38344 -0.0137,0.52869 -0.0788,0.74288 -0.49322,1.29243 -1.13696,1.40931 -0.14358,0.0261 -0.38285,0.0261 -0.52643,0 -0.64375,-0.11688 -1.0582,-0.66642 -1.13697,-1.40931 -0.0154,-0.14525 -0.0137,-0.38257 -0.0137,-0.52869 V 222.8434 c 0,-0.14612 -0.11846,-0.26458 -0.26458,-0.26458 h -5.33353 -1.1808 -10.31255 -0.97462 -7.79126 c -0.14612,0 -0.38307,-4.1e-4 -0.52913,0.004 -3.73554,0.10432 -6.14149,2.42283 -6.26064,5.79861 -0.005,0.14603 -0.005,0.38303 0,0.52906 0.11915,3.37578 2.5251,5.69431 6.26064,5.79862 0.14607,0.004 0.38301,0.004 0.52913,0.004 h 0.60204 c 0.14612,0 0.38384,-0.003 0.52832,0.018 0.44134,0.0643 0.66403,0.292 0.74852,0.54455 0.0462,0.13797 0.046,0.38305 -0.005,0.51922 -0.0892,0.23896 -0.31748,0.4596 -0.76941,0.52095 -0.14467,0.0196 -0.38228,0.0168 -0.5284,0.0168 h -6.72001 c -0.14612,0 -0.26458,0.11846 -0.26458,0.26458 v 4.99816 c 0,0.14612 0.11846,0.26458 0.26458,0.26458 h 8.51939 c 0.14612,0 0.38307,4.2e-4 0.52913,-0.004 3.80634,-0.10971 6.19217,-2.58997 6.31173,-5.92717 0.005,-0.14603 0.005,-0.38303 -7e-5,-0.52906 -0.12039,-3.31295 -2.50604,-5.79166 -6.31166,-5.90133 -0.14606,-0.004 -0.38301,-0.004 -0.52913,-0.004 h -0.44753 c -0.14612,0 -0.38393,0.003 -0.52822,-0.0191 -0.33393,-0.0514 -0.56224,-0.20324 -0.65996,-0.41839 -0.0599,-0.13177 -0.0607,-0.38101 -0.004,-0.51454 0.0955,-0.22433 0.32566,-0.37027 0.66439,-0.41845 0.14417,-0.0205 0.38154,-0.0175 0.52766,-0.0175 h 5.33405 0.97462 1.75028 c 0.14612,0 0.26458,0.11846 0.26458,0.26458 V 241.595 c 0,0.14612 0.11846,0.26458 0.26458,0.26458 h 6.51433 c 0.14612,0 0.26458,-0.11846 0.26458,-0.26458 v -13.22401 c 0,-0.14612 0.11846,-0.26458 0.26458,-0.26458 h 0.98962 c 0.14612,0 0.26458,0.11846 0.26458,0.26458 v 5.38314 c 0,0.14612 -3.4e-4,0.38306 0.003,0.52914 0.11317,4.79821 3.31272,7.82767 8.18971,7.93313 0.14608,0.003 0.38302,0.003 0.52911,3e-5 3.29896,-0.0706 5.81696,-1.46617 7.1447,-3.83471 0.0714,-0.12743 0.12517,-0.11457 0.12517,0.0316 v 3.18173 c 0,0.14612 0.11846,0.26458 0.26458,0.26458 h 7.02851 c 0.14612,0 0.38305,2.5e-4 0.52915,-0.002 4.065,-0.0704 7.07965,-1.76543 8.705,-4.47345 0.0752,-0.1253 0.13272,-0.11044 0.13272,0.0357 v 4.17547 c 0,0.14612 0.11846,0.26458 0.26458,0.26458 h 6.51434 c 0.14612,0 0.26458,-0.11846 0.26458,-0.26458 v -4.21732 c 0,-0.14612 0.0565,-0.16045 0.13019,-0.0342 1.70092,2.91409 4.87506,4.79303 8.83621,4.87315 0.14609,0.003 0.38303,0.003 0.52913,2e-5 5.935,-0.11905 10.0935,-4.24321 10.22068,-9.83554 0.003,-0.14608 0.003,-0.38304 -1.1e-4,-0.52912 -0.12944,-5.49016 -4.28727,-9.51375 -10.22057,-9.62993 -0.1461,-0.003 -0.38304,-0.003 -0.52914,2e-5 z m -25.61861,6.52672 h 0.0362 c 0.14612,0 0.38312,-7.6e-4 0.52907,0.006 1.9973,0.0949 3.08176,1.2767 3.17386,3.14829 0.007,0.14592 0.007,0.383 -1.7e-4,0.52892 -0.0922,1.82679 -1.15469,3.0263 -3.14788,3.12282 -0.14593,0.007 -0.38292,0.006 -0.52904,0.006 h -0.062 c -0.14612,0 -0.26458,-0.11846 -0.26458,-0.26458 v -6.28334 c 0,-0.14612 0.11846,-0.26458 0.26458,-0.26458 z m 26.14759,0.0341 c 1.81416,0.11468 2.98873,1.41205 3.0954,3.17207 0.009,0.14583 0.009,0.38301 -1.9e-4,0.52884 -0.1079,1.73914 -1.28221,3.05548 -3.09534,3.17194 -0.14573,0.009 -0.38289,0.009 -0.52868,-2.2e-4 -1.78988,-0.11788 -2.96169,-1.43376 -3.06939,-3.17192 -0.009,-0.14571 -0.009,-0.38281 -1.8e-4,-0.52864 0.10654,-1.75898 1.27867,-3.05585 3.06957,-3.17186 0.14579,-0.009 0.383,-0.009 0.52881,-2.1e-4 z"
       transform="translate(2.7119122,82.549572)" />
  </g>
</svg>
