<?xml version="1.0" encoding="UTF-8" standalone="no"?>
<!-- Created with Inkscape (http://www.inkscape.org/) -->

<svg
   width="110.27343mm"
   height="20.468487mm"
   viewBox="0 0 110.27343 20.468487"
   version="1.1"
   id="svg1"
   xmlns="http://www.w3.org/2000/svg"
   xmlns:svg="http://www.w3.org/2000/svg">
  <defs
     id="defs1">
    <linearGradient
       id="swatch5">
      <stop
         style="stop-color:#000000;stop-opacity:0;"
         offset="0"
         id="stop5" />
    </linearGradient>
    <rect
       x="283.46457"
       y="113.38582"
       width="472.44095"
       height="113.38582"
       id="rect2-5-6-1-4-7-8-5-4-7-8-1-11-8-1" />
    <rect
       x="283.46457"
       y="113.38582"
       width="472.44095"
       height="113.38582"
       id="rect2-5-6-7-8-8-4-2-1-4" />
  </defs>
  <g
     id="layer1"
     transform="translate(-229,-219.53153)">
    <path
       id="text2-2-2-9-4-7-4-0-6-2"
       style="font-size:85.8651px;line-height:0.9;font-family:Noka;-inkscape-font-specification:Noka;text-align:start;letter-spacing:-8.83748px;writing-mode:lr-tb;direction:ltr;white-space:pre;shape-inside:url(#rect2-5-6-7-8-8-4-2-1-4);display:inline;fill:none;fill-opacity:1;stroke:#000000;stroke-width:0.476;stroke-linecap:round;stroke-linejoin:round;stroke-dasharray:none;stroke-opacity:1;paint-order:normal"
       d="m 301.25705,222.24284 c -3.50611,0.21128 -6.34755,1.82267 -8.02151,4.29575 -0.24565,0.36291 -0.41617,0.32023 -0.41617,-0.11815 v -3.04787 c 0,-0.43838 -0.35537,-0.79375 -0.79375,-0.79375 h -5.456 c -0.43838,0 -0.79375,0.35537 -0.79375,0.79375 v 3.01325 c 0,0.43838 -0.1735,0.48252 -0.42574,0.12418 -1.60205,-2.27596 -4.31393,-3.72588 -7.90899,-3.91102 -0.43775,-0.0226 -1.14877,-0.0202 -1.58715,-0.0202 h -5.02088 -1.5875 -5.45651 c -0.43838,0 -0.79375,0.35537 -0.79375,0.79375 v 10.16062 c 0,0.43838 0.0213,1.16411 -0.13288,1.57195 -0.11227,0.29697 -0.2928,0.53814 -0.53057,0.6987 -0.35788,0.24166 -1.14296,0.24166 -1.50084,0 -0.23777,-0.16055 -0.4183,-0.40172 -0.53057,-0.6987 -0.15418,-0.40784 -0.13288,-1.13357 -0.13288,-1.57195 v -10.16062 c 0,-0.43838 -0.35537,-0.79375 -0.79375,-0.79375 h -4.27519 -1.5875 -9.90585 -1.5875 -7.17838 c -0.43838,0 -1.14994,-0.004 -1.58653,0.0338 -3.24174,0.28235 -5.3717,2.30951 -5.69434,5.24078 -0.0479,0.43553 -0.0479,1.14888 0,1.5844 0.32264,2.93127 2.45261,4.95844 5.69434,5.24079 0.43659,0.038 1.14815,0.0338 1.58653,0.0338 0.18637,0 0.74508,-0.0528 1.09037,0.20508 0.30396,0.22705 0.27576,1.06186 -0.0887,1.26461 -0.3408,0.18958 -1.0454,0.14984 -1.48378,0.14984 l -5.66167,0 c -0.43838,0 -0.79375,0.35537 -0.79375,0.79375 v 3.93982 c 0,0.43838 0.35537,0.79375 0.79375,0.79375 h 7.46105 c 0.43838,0 1.14999,0.004 1.58647,-0.0349 3.3016,-0.29646 5.42178,-2.45307 5.74508,-5.36842 0.0483,-0.43548 0.0483,-1.14889 -6e-4,-1.5843 -0.32533,-2.8938 -2.44493,-5.04646 -5.74448,-5.34263 -0.43648,-0.0392 -1.14809,-0.0349 -1.58647,-0.0349 -0.10104,0 -0.59769,0.056 -0.93191,-0.21509 -0.22755,-0.18459 -0.17774,-0.93186 0.20346,-1.0832 0.28379,-0.11266 0.90088,-0.0897 1.33926,-0.0897 l 4.27571,0 1.5875,0 1.1374,0 c 0.43838,0 0.79375,0.35537 0.79375,0.79375 v 12.16567 c 0,0.43838 0.35537,0.79375 0.79375,0.79375 l 5.45599,0 c 0.43838,0 0.79375,-0.35537 0.79375,-0.79375 l 0,-12.16567 c 0,-0.43838 0.35537,-0.79375 0.79375,-0.79375 0.40043,0 0.72503,0.35537 0.72503,0.79375 l 0,4.3248 c 0,0.43838 -0.003,1.1497 0.0285,1.58681 0.31585,4.32052 3.23421,7.08691 7.6357,7.38136 0.43731,0.0293 1.14901,0.0292 1.58634,2.5e-4 2.82941,-0.18755 5.03613,-1.38762 6.34069,-3.35994 0.2417,-0.36543 0.40056,-0.32938 0.40056,0.109 v 2.12339 c 0,0.43838 0.35537,0.79375 0.79375,0.79375 h 5.97017 c 0.43838,0 1.14943,0.002 1.58713,-0.0209 3.57562,-0.19059 6.2881,-1.67588 7.89023,-4.00971 0.24802,-0.3613 0.41868,-0.31868 0.41868,0.1197 v 3.11713 c 0,0.43838 0.35537,0.79375 0.79375,0.79375 h 5.456 c 0.43838,0 0.79375,-0.35537 0.79375,-0.79375 v -3.15898 c 0,-0.43838 0.16785,-0.47966 0.40953,-0.11408 1.67309,2.53081 4.51742,4.18547 8.02818,4.40221 0.43747,0.027 1.14902,0.027 1.58651,2e-4 5.46677,-0.33478 9.31016,-4.12845 9.66773,-9.28556 0.0303,-0.43724 0.0304,-1.14904 -0.001,-1.5862 -0.36372,-5.05642 -4.20503,-8.75396 -9.6667,-9.08049 -0.43753,-0.0262 -1.14904,-0.0262 -1.58656,1.9e-4 z m -25.35448,6.50563 c 0.31223,0 0.92355,-0.009 1.35605,0.0594 1.4837,0.23587 2.36208,1.16289 2.5927,2.56908 0.0709,0.4321 0.071,1.14898 -0.001,1.58082 -0.2303,1.37251 -1.09242,2.30393 -2.56552,2.54273 -0.43225,0.0701 -1.05524,0.0605 -1.38174,0.0605 z m 26.93638,0.10314 c 1.34199,0.27431 2.24963,1.25563 2.50542,2.5783 0.0831,0.42975 0.083,1.14859 -0.002,1.57803 -0.25786,1.3095 -1.16467,2.29963 -2.50417,2.57734 -0.42844,0.0888 -1.14852,0.089 -1.57657,-0.002 -1.3207,-0.28029 -2.22173,-1.26899 -2.47858,-2.57564 -0.0844,-0.42936 -0.0845,-1.14809 -0.001,-1.57786 0.25485,-1.31974 1.15674,-2.29964 2.4799,-2.57646 0.42832,-0.0896 1.14822,-0.0895 1.57699,-0.002 z"
       transform="translate(1.7162744,-2.4532621)" />
    <path
       id="text2-2-2-0-5-3-0-8-5-2-4-2-7-3-2-61-5-4"
       style="font-style:normal;font-variant:normal;font-weight:normal;font-stretch:normal;font-size:85.8651px;line-height:0.9;font-family:'Instrument Serif';-inkscape-font-specification:'Instrument Serif, Normal';font-variant-ligatures:normal;font-variant-caps:normal;font-variant-numeric:normal;font-variant-east-asian:normal;text-align:start;letter-spacing:-0.840884px;writing-mode:lr-tb;direction:ltr;white-space:pre;shape-inside:url(#rect2-5-6-1-4-7-8-5-4-7-8-1-11-8-1);display:inline;fill:#000000;fill-opacity:1;stroke-width:0.176389"
       d="m 321.49114,219.69091 c -1.07021,0 -1.97115,0.24946 -2.70246,0.74889 -0.73131,0.49943 -1.28444,1.15043 -1.65901,1.95308 -0.35674,0.80267 -0.53472,1.6681 -0.53472,2.59561 v 0.16027 c 0,0.64212 -0.41928,1.00768 -1.25763,1.09687 -0.21403,0.0178 -0.32101,0.11619 -0.32101,0.29455 0,0.17836 0.10698,0.2676 0.32101,0.2676 h 0.61558 c 0.42809,0 0.64205,0.21396 0.64205,0.64204 v 10.46137 c 0,0.37457 -0.0624,0.65089 -0.18723,0.82927 -0.12484,0.16053 -0.41029,0.25839 -0.85622,0.29406 l -0.53519,0.0539 c -0.23188,0.0179 -0.34797,0.12481 -0.34797,0.32102 0,0.19621 0.13385,0.29407 0.4014,0.29407 h 4.682 c 0.26755,0 0.40139,-0.10698 0.40139,-0.32102 0,-0.16053 -0.0979,-0.2584 -0.29406,-0.29407 l -0.66899,-0.0804 c -0.30323,-0.0357 -0.50855,-0.13402 -0.61557,-0.29455 -0.10702,-0.16054 -0.16028,-0.42774 -0.16028,-0.80232 v -10.78233 c 0,-0.21404 0.10699,-0.32102 0.32103,-0.32102 h 4.12034 c 0.24972,0 0.37445,0.12472 0.37445,0.37444 v 10.72896 c 0,0.37458 -0.0624,0.64178 -0.18723,0.80232 -0.12485,0.1427 -0.4103,0.24967 -0.85622,0.32102 l -0.32102,0.0539 c -0.23188,0.0536 -0.34797,0.16049 -0.34797,0.32102 0,0.19621 0.13384,0.29406 0.40139,0.29406 h 4.33838 0.12994 4.63244 c 0.21404,0 0.32102,-0.0978 0.32102,-0.29406 0,-0.17837 -0.0979,-0.28535 -0.29407,-0.32102 l -0.61557,-0.0804 c -0.37457,-0.0536 -0.62404,-0.15186 -0.74889,-0.29455 -0.10703,-0.16054 -0.16076,-0.42774 -0.16076,-0.80232 v -17.57823 c 0,-0.28539 -0.0979,-0.42835 -0.29406,-0.42835 -0.1427,0 -0.35666,0.0892 -0.64204,0.2676 -0.23188,0.14269 -0.52644,0.28566 -0.88318,0.42835 -0.35674,0.14269 -0.78465,0.26742 -1.28408,0.37444 -0.19621,0.0357 -0.29456,0.14266 -0.29456,0.32102 0,0.17838 0.0983,0.28535 0.29456,0.32103 l 0.61509,0.0804 c 0.24971,0.0178 0.41953,0.0893 0.50872,0.21417 0.10702,0.12486 0.16027,0.34745 0.16027,0.66851 v 15.33108 c 0,0.37458 -0.0892,0.64178 -0.2676,0.80232 -0.17836,0.16053 -0.45469,0.26751 -0.82926,0.32102 l -0.25461,0.0366 -0.52557,-0.063 c -0.30322,-0.0357 -0.50806,-0.13402 -0.61509,-0.29455 -0.10702,-0.16054 -0.16075,-0.42775 -0.16075,-0.80232 v -11.21074 c 0,-0.42808 -0.21396,-0.64204 -0.64205,-0.64204 h -5.67202 c -0.21404,0 -0.32103,-0.10698 -0.32103,-0.32102 v -1.81928 c 0,-0.90968 0.1161,-1.61441 0.34798,-2.11384 0.24972,-0.49943 0.56154,-0.84724 0.93611,-1.04344 0.39241,-0.1962 0.8117,-0.29407 1.25762,-0.29407 0.51727,0 0.90058,0.12473 1.15028,0.37444 0.24972,0.24972 0.44594,0.54379 0.58863,0.8827 0.16053,0.32106 0.33035,0.6065 0.50873,0.85621 0.17836,0.24972 0.45469,0.37493 0.82926,0.37493 0.37457,0 0.64226,-0.0983 0.8028,-0.29455 0.17837,-0.21405 0.26711,-0.49037 0.26711,-0.82927 0,-0.57078 -0.32958,-1.07017 -0.98953,-1.49826 -0.65996,-0.42809 -1.53403,-0.64204 -2.62208,-0.64204 z m 16.23015,0.14438 c -0.23188,0 -0.42809,0.0359 -0.58862,0.10733 -0.16054,0.0713 -0.32988,0.17833 -0.50825,0.32103 l -3.85276,2.99652 c -0.28538,0.19621 -0.3655,0.39242 -0.24064,0.58862 0.10702,0.19621 0.31186,0.2317 0.61509,0.10685 l 4.7624,-2.16726 c 0.32106,-0.1427 0.5355,-0.29429 0.64252,-0.45482 0.12486,-0.17837 0.18722,-0.38321 0.18722,-0.61509 0,-0.21404 -0.0892,-0.41025 -0.26759,-0.58863 -0.17837,-0.1962 -0.42832,-0.29455 -0.74937,-0.29455 z m -1.97958,5.99305 c -0.87399,0 -1.66796,0.3032 -2.38142,0.90965 -0.71348,0.60645 -1.27524,1.44502 -1.68549,2.51523 -0.41025,1.07021 -0.61558,2.30984 -0.61558,3.71895 0,1.37344 0.19621,2.58619 0.58863,3.63856 0.41024,1.03454 0.95426,1.83713 1.63206,2.40791 0.6778,0.57078 1.44489,0.85622 2.30106,0.85622 0.89185,0 1.64983,-0.31182 2.27411,-0.93611 0.62429,-0.64213 1.07908,-1.75702 1.36446,-3.3445 0.0536,-0.35674 -0.0266,-0.5352 -0.24064,-0.5352 -0.17837,0 -0.29446,0.0983 -0.34798,0.29455 -0.26755,1.14156 -0.61535,1.95278 -1.04343,2.43438 -0.42809,0.48159 -0.98074,0.72241 -1.65855,0.72241 -0.85616,0 -1.56089,-0.47253 -2.11383,-1.41788 -0.55295,-0.94535 -0.82927,-2.36344 -0.82927,-4.25414 0,-0.41024 0.17846,-0.61509 0.53519,-0.61509 h 5.08342 c 0.44593,0 0.669,-0.29456 0.669,-0.88317 0,-1.94421 -0.33006,-3.34455 -0.99002,-4.20072 -0.64212,-0.87401 -1.48933,-1.31105 -2.54172,-1.31105 z m -0.0269,0.66901 c 0.57077,0 0.9987,0.33005 1.2841,0.99001 0.28538,0.65996 0.42834,1.56953 0.42834,2.72893 0,0.89184 -0.4284,1.33799 -1.28458,1.33799 h -2.70197 c -0.30323,0 -0.43707,-0.14296 -0.40139,-0.42835 0.14268,-1.48046 0.44587,-2.62173 0.90963,-3.42439 0.4816,-0.80266 1.07023,-1.20419 1.76587,-1.20419 z" />
  </g>
</svg>
