<?xml version="1.0" encoding="UTF-8" standalone="no"?>
<!-- Created with Inkscape (http://www.inkscape.org/) -->

<svg
   width="43.710445mm"
   height="237.04541mm"
   viewBox="0 0 43.710445 237.04541"
   version="1.1"
   id="svg1"
   xmlns="http://www.w3.org/2000/svg"
   xmlns:svg="http://www.w3.org/2000/svg">
  <defs
     id="defs1">
    <linearGradient
       id="swatch5">
      <stop
         style="stop-color:#000000;stop-opacity:0;"
         offset="0"
         id="stop5" />
    </linearGradient>
    <rect
       x="283.46457"
       y="113.38582"
       width="472.44095"
       height="113.38582"
       id="rect2-5-6-1-4-7-8-5-4-7-8-1-11-8-6-6" />
    <rect
       x="283.46457"
       y="113.38582"
       width="472.44095"
       height="113.38582"
       id="rect2-5-6-7-8-8-4-2-1-3-0" />
  </defs>
  <g
     id="layer1"
     transform="translate(-486.28956,58.522706)">
    <g
       id="g7"
       transform="translate(20.000004,6.6284442)">
      <text
         xml:space="preserve"
         transform="matrix(0,-0.64716728,0.64716728,0,394.16506,356.23247)"
         id="text2-2-2-9-4-7-4-0-6-3-6"
         style="font-size:85.8651px;line-height:0.9;font-family:Noka;-inkscape-font-specification:Noka;text-align:start;letter-spacing:-8.83748px;writing-mode:lr-tb;direction:ltr;white-space:pre;shape-inside:url(#rect2-5-6-7-8-8-4-2-1-3-0);display:inline;fill:#000000;fill-opacity:1;stroke-width:0.272555"
         x="-67.120132"
         y="0"><tspan
           x="283.46484"
           y="177.78554"
           id="tspan1">STUDIO</tspan></text>
      <path
         id="text2-2-2-0-5-3-0-8-5-2-4-2-7-3-9-9-8-2"
         style="font-style:normal;font-variant:normal;font-weight:normal;font-stretch:normal;font-size:85.8651px;line-height:0.9;font-family:'Instrument Serif';-inkscape-font-specification:'Instrument Serif, Normal';font-variant-ligatures:normal;font-variant-caps:normal;font-variant-numeric:normal;font-variant-east-asian:normal;text-align:start;letter-spacing:-0.840884px;writing-mode:lr-tb;direction:ltr;white-space:pre;shape-inside:url(#rect2-5-6-1-4-7-8-5-4-7-8-1-11-8-6-6);display:inline;fill:#000000;fill-opacity:1;stroke-width:0.176389"
         d="m 466.28957,-25.852369 c 0,2.2937 0.53569,4.22463 1.60608,5.79198 1.07037,1.56735 2.46563,2.75182 4.18591,3.55464 1.72027,0.76454 3.57406,1.14701 5.56196,1.14701 h 0.34452 c 1.37622,0 2.15966,0.89864 2.35082,2.69535 0.038,0.45875 0.24901,0.68805 0.63129,0.68805 0.38229,0 0.5725,-0.2293 0.5725,-0.68805 v -1.31931 c 0,-0.91747 0.45959,-1.37604 1.37708,-1.37604 h 22.42003 c 0.8028,0 1.39606,0.1338 1.77833,0.40127 0.34405,0.26759 0.5538,0.87936 0.63026,1.83505 l 0.11462,1.14708 c 0.0383,0.49694 0.26854,0.74579 0.68905,0.74579 0.42053,0 0.63027,-0.28688 0.63027,-0.86031 v -10.03565 c 0,-0.5734 -0.2293,-0.86028 -0.68803,-0.86028 -0.34405,0 -0.55483,0.21077 -0.63129,0.63129 l -0.1712,1.43382 c -0.0765,0.64988 -0.28724,1.08891 -0.6313,1.31828 -0.34405,0.22938 -0.91777,0.34452 -1.72056,0.34452 h -23.1081 c -0.45875,0 -0.68906,-0.22928 -0.68906,-0.688 v -8.83085 c 0,-0.53517 0.26836,-0.80252 0.80355,-0.80252 h 22.99357 c 0.80279,0 1.37652,0.13381 1.72057,0.40129 0.30582,0.26758 0.53513,0.87935 0.68801,1.83504 l 0.11463,0.68803 c 0.11471,0.49697 0.34501,0.74476 0.68906,0.74476 0.42052,0 0.63027,-0.28585 0.63027,-0.85925 v -9.29915 -0.27747 -9.9294 c 0,-0.45873 -0.20968,-0.68803 -0.63027,-0.68803 -0.38226,0 -0.61259,0.21077 -0.68906,0.63129 l -0.17121,1.31829 c -0.11463,0.8028 -0.32547,1.33847 -0.63131,1.60606 -0.34403,0.22938 -0.91776,0.34351 -1.72055,0.34351 h -37.67312 c -0.61165,0 -0.91804,0.21075 -0.91804,0.63128 0,0.30585 0.1913,0.7644 0.57351,1.37605 0.30582,0.49696 0.61121,1.12827 0.91702,1.89284 0.30583,0.76458 0.5742,1.68169 0.80358,2.75209 0.0764,0.42051 0.30572,0.63024 0.688,0.63024 0.38229,0 0.61154,-0.20968 0.68802,-0.63024 l 0.17228,-1.31934 c 0.0382,-0.53517 0.19044,-0.89812 0.45799,-1.08926 0.26762,-0.22938 0.74573,-0.34349 1.43381,-0.34349 h 32.85697 c 0.8028,0 1.37651,0.19023 1.72056,0.57249 0.34404,0.38229 0.57336,0.97555 0.68804,1.77834 l 0.0774,0.54567 -0.13425,1.12541 c -0.0764,0.64987 -0.28724,1.08992 -0.63128,1.31928 -0.34405,0.22937 -0.91777,0.34351 -1.72055,0.34351 h -24.02618 c -0.91749,0 -1.37602,0.45959 -1.37602,1.37707 v 12.15646 c 0,0.45872 -0.2293,0.688 -0.68804,0.688 h -3.89913 c -1.94965,0 -3.46005,-0.24881 -4.53042,-0.74577 -1.0704,-0.53521 -1.81584,-1.20352 -2.23634,-2.00632 -0.42052,-0.84102 -0.63027,-1.73966 -0.63027,-2.69533 0,-1.10864 0.26732,-1.93118 0.80252,-2.46639 0.53523,-0.53521 1.16547,-0.95571 1.89181,-1.26153 0.68813,-0.34405 1.29987,-0.70701 1.83507,-1.0893 0.5352,-0.38228 0.80252,-0.97451 0.80252,-1.7773 0,-0.80281 -0.20967,-1.37651 -0.63027,-1.72056 -0.4587,-0.38229 -1.05093,-0.57353 -1.77729,-0.57353 -1.22332,0 -2.29362,0.7074 -3.21111,2.12182 -0.91748,1.41444 -1.3771,3.28779 -1.3771,5.61972 z m 0.3105,-35.68124 c 0,0.54059 0.0761,0.99765 0.22898,1.37193 0.15284,0.37422 0.38222,0.76936 0.68804,1.1852 l 6.42326,8.98244 c 0.42053,0.66534 0.83999,0.85224 1.26051,0.56117 0.4205,-0.24951 0.49763,-0.72794 0.23005,-1.43485 l -4.64493,-11.10222 c -0.30583,-0.74851 -0.63075,-1.24828 -0.97479,-1.49776 -0.38229,-0.2911 -0.82236,-0.43633 -1.31933,-0.43633 -0.45873,0 -0.87926,0.20815 -1.26153,0.62405 -0.42051,0.41584 -0.63026,0.99785 -0.63026,1.74637 z m 12.84448,4.61604 c 0,2.03755 0.64977,3.88725 1.94955,5.5506 1.29974,1.66333 3.09702,2.97367 5.39072,3.93009 2.2937,0.95641 4.95051,1.43482 7.97053,1.43482 2.9436,0 5.54282,-0.45811 7.79829,-1.37294 2.21723,-0.95641 3.93737,-2.22408 5.16068,-3.80425 1.22332,-1.58015 1.83506,-3.36891 1.83506,-5.36492 0,-2.07917 -0.66933,-3.84555 -2.00731,-5.30096 -1.37623,-1.45542 -3.76466,-2.51588 -7.167,-3.1812 -0.76457,-0.12467 -1.14706,0.062 -1.14706,0.56112 0,0.41583 0.20968,0.68603 0.63026,0.81079 2.44659,0.62375 4.18631,1.43432 5.21844,2.43232 1.03219,0.99798 1.54833,2.28699 1.54833,3.86717 0,1.99598 -1.01273,3.63848 -3.03886,4.92753 -2.02611,1.28911 -5.06538,1.93413 -9.11759,1.93413 -0.87924,0 -1.31931,-0.4165 -1.31931,-1.24815 v -11.85111 c 0,-1.03958 -0.63027,-1.55862 -1.89181,-1.55862 -4.16688,0 -7.16812,0.76894 -9.0031,2.3075 -1.87319,1.497 -2.80982,3.47266 -2.80982,5.92608 z m 1.43379,0.0618 c 0,-1.33065 0.7074,-2.32813 2.12184,-2.99347 1.41443,-0.66533 3.36385,-0.99849 5.84869,-0.99849 1.91144,0 2.86763,0.99849 2.86763,2.99449 v 6.29948 c 0,0.70691 -0.30639,1.01877 -0.91804,0.9356 -3.17296,-0.33267 -5.61898,-1.03965 -7.33925,-2.12083 -1.72029,-1.12273 -2.58087,-2.49503 -2.58087,-4.11678 z" />
    </g>
  </g>
</svg>
