<?xml version="1.0" encoding="UTF-8" standalone="no"?>
<!-- Created with Inkscape (http://www.inkscape.org/) -->

<svg
   width="110.68878mm"
   height="20.092907mm"
   viewBox="0 0 110.68878 20.092907"
   version="1.1"
   id="svg1"
   sodipodi:docname="logo-footer.svg"
   inkscape:export-filename="logo-footer.svg"
   inkscape:export-xdpi="300"
   inkscape:export-ydpi="300"
   inkscape:version="1.4.2 (f4327f4, 2025-05-13)"
   xmlns:inkscape="http://www.inkscape.org/namespaces/inkscape"
   xmlns:sodipodi="http://sodipodi.sourceforge.net/DTD/sodipodi-0.dtd"
   xmlns="http://www.w3.org/2000/svg"
   xmlns:svg="http://www.w3.org/2000/svg">
  <sodipodi:namedview
     id="namedview1"
     pagecolor="#ffffff"
     bordercolor="#000000"
     borderopacity="0.25"
     inkscape:showpageshadow="2"
     inkscape:pageopacity="0.0"
     inkscape:pagecheckerboard="0"
     inkscape:deskcolor="#d1d1d1"
     inkscape:document-units="mm"
     inkscape:zoom="2.1226199"
     inkscape:cx="177.13958"
     inkscape:cy="27.560281"
     inkscape:window-width="1920"
     inkscape:window-height="1009"
     inkscape:window-x="1912"
     inkscape:window-y="-8"
     inkscape:window-maximized="1"
     inkscape:current-layer="layer1" />
  <defs
     id="defs1">
    <rect
       x="283.46457"
       y="113.38582"
       width="472.44095"
       height="113.38582"
       id="rect2-5-6-1-4-7-8-5-4-7-8-1-11-8-1" />
    <rect
       x="283.46457"
       y="113.38582"
       width="472.44095"
       height="113.38582"
       id="rect2-5-6-7-8-8-4-2-1-4" />
  </defs>
  <g
     id="layer1"
     transform="translate(-229.8405,-304.38168)">
    <path
       id="text2-2-2-0-5-3-0-8-5-2-4-2-7-3-2-61-5-4-5"
       style="font-style:normal;font-variant:normal;font-weight:normal;font-stretch:normal;font-size:85.8651px;line-height:0.9;font-family:'Instrument Serif';-inkscape-font-specification:'Instrument Serif, Normal';font-variant-ligatures:normal;font-variant-caps:normal;font-variant-numeric:normal;font-variant-east-asian:normal;text-align:start;letter-spacing:-0.840884px;writing-mode:lr-tb;direction:ltr;white-space:pre;shape-inside:url(#rect2-5-6-1-4-7-8-5-4-7-8-1-11-8-1);display:inline;fill:#000000;fill-opacity:1;stroke:none;stroke-width:0.176388"
       d="m 322.25337,304.74715 c -1.09992,0 -2.02586,0.24382 -2.77747,0.73196 -0.75162,0.48813 -1.3201,1.12441 -1.70506,1.9089 -0.36665,0.78451 -0.54957,1.63037 -0.54957,2.53691 v 0.15663 c 0,0.62761 -0.43091,0.9849 -1.29254,1.07206 -0.21997,0.0174 -0.32992,0.11357 -0.32992,0.28789 0,0.17433 0.10995,0.26155 0.32992,0.26155 h 0.63267 c 0.43996,0 0.65987,0.20912 0.65987,0.62752 v 10.22476 c 0,0.3661 -0.0641,0.63617 -0.19242,0.81052 -0.12831,0.15689 -0.42168,0.25254 -0.87999,0.28741 l -0.55005,0.0527 c -0.23831,0.0175 -0.35763,0.12199 -0.35763,0.31376 0,0.19177 0.13756,0.28742 0.41256,0.28742 h 4.81194 c 0.27498,0 0.41255,-0.10456 0.41255,-0.31376 0,-0.1569 -0.10064,-0.25256 -0.30223,-0.28742 l -0.68755,-0.0786 c -0.31166,-0.0349 -0.52269,-0.13099 -0.63267,-0.28789 -0.10999,-0.15691 -0.16472,-0.41807 -0.16472,-0.78418 v -10.53846 c 0,-0.20919 0.10996,-0.31376 0.32993,-0.31376 h 4.23471 c 0.25665,0 0.38485,0.1219 0.38485,0.36597 v 10.4863 c 0,0.36611 -0.0641,0.62727 -0.19243,0.78418 -0.12832,0.13946 -0.42169,0.24401 -0.87998,0.31376 l -0.32993,0.0527 c -0.23833,0.0524 -0.35764,0.15686 -0.35764,0.31376 0,0.19177 0.13756,0.28741 0.41253,0.28741 h 4.45882 0.13354 4.76102 c 0.21998,0 0.32994,-0.0956 0.32994,-0.28741 0,-0.17433 -0.10063,-0.2789 -0.30224,-0.31376 l -0.63266,-0.0786 c -0.38496,-0.0524 -0.64136,-0.14844 -0.76968,-0.28789 -0.11,-0.15691 -0.16521,-0.41807 -0.16521,-0.78418 v -17.18063 c 0,-0.27894 -0.10062,-0.41866 -0.30223,-0.41866 -0.14665,0 -0.36656,0.0872 -0.65986,0.26155 -0.23831,0.13946 -0.54105,0.2792 -0.9077,0.41866 -0.36665,0.13947 -0.80641,0.26137 -1.31972,0.36597 -0.20165,0.0349 -0.30274,0.13943 -0.30274,0.31376 0,0.17434 0.10104,0.2789 0.30274,0.31377 l 0.63216,0.0786 c 0.25665,0.0174 0.43117,0.0873 0.52284,0.20933 0.10999,0.12203 0.16472,0.33959 0.16472,0.65338 v 14.98433 c 0,0.36611 -0.0916,0.62727 -0.27503,0.78418 -0.1833,0.1569 -0.4673,0.26145 -0.85227,0.31376 l -0.26169,0.0357 -0.54015,-0.0616 c -0.31163,-0.0349 -0.52216,-0.13099 -0.63216,-0.28788 -0.10999,-0.15691 -0.16522,-0.41808 -0.16522,-0.78418 v -10.95712 c 0,-0.41839 -0.21989,-0.62752 -0.65987,-0.62752 h -5.82946 c -0.21997,0 -0.32993,-0.10455 -0.32993,-0.31376 v -1.77813 c 0,-0.8891 0.11932,-1.5779 0.35763,-2.06603 0.25665,-0.48813 0.57712,-0.82807 0.9621,-1.01983 0.40329,-0.19177 0.83422,-0.28743 1.29252,-0.28743 0.53163,0 0.92559,0.12192 1.18222,0.36597 0.25665,0.24408 0.4583,0.53149 0.60497,0.86274 0.16498,0.3138 0.33952,0.59279 0.52284,0.83684 0.18331,0.24408 0.46731,0.36646 0.85228,0.36646 0.38496,0 0.66008,-0.096 0.82508,-0.28789 0.18333,-0.20922 0.27453,-0.47928 0.27453,-0.81052 0,-0.55787 -0.33873,-1.04596 -1.017,-1.46437 -0.67828,-0.41841 -1.57661,-0.62752 -2.69486,-0.62752 z m 16.68066,0.14111 c -0.23832,0 -0.43997,0.0351 -0.60496,0.10491 -0.16499,0.0697 -0.33904,0.17429 -0.52236,0.31377 l -3.95971,2.92874 c -0.29329,0.19177 -0.37563,0.38355 -0.24731,0.57531 0.10998,0.19177 0.32052,0.22646 0.63216,0.10444 l 4.8946,-2.11825 c 0.32997,-0.13947 0.55037,-0.28763 0.66035,-0.44453 0.12832,-0.17433 0.19243,-0.37454 0.19243,-0.60118 0,-0.20919 -0.0917,-0.40097 -0.27504,-0.57532 -0.18331,-0.19176 -0.4402,-0.28789 -0.77016,-0.28789 z m -2.03453,5.8575 c -0.89825,0 -1.71426,0.29635 -2.44752,0.88908 -0.73329,0.59274 -1.31063,1.41234 -1.73228,2.45834 -0.42164,1.04601 -0.63267,2.2576 -0.63267,3.63484 0,1.34238 0.20167,2.52769 0.60497,3.55626 0.42163,1.01114 0.98075,1.79559 1.67737,2.35345 0.69662,0.55787 1.48499,0.83686 2.36494,0.83686 0.91659,0 1.6956,-0.30477 2.33721,-0.91494 0.64163,-0.6276 1.10905,-1.71728 1.40234,-3.26886 0.0551,-0.34867 -0.0274,-0.52309 -0.24731,-0.52309 -0.18332,0 -0.30263,0.096 -0.35765,0.28789 -0.27497,1.11573 -0.63242,1.90861 -1.07238,2.37931 -0.43997,0.4707 -1.00796,0.70608 -1.7046,0.70608 -0.87991,0 -1.60421,-0.46185 -2.1725,-1.38581 -0.56829,-0.92397 -0.85228,-2.30999 -0.85228,-4.15792 0,-0.40097 0.18342,-0.60118 0.55004,-0.60118 h 5.22453 c 0.4583,0 0.68757,-0.2879 0.68757,-0.8632 0,-1.90023 -0.33922,-3.2689 -1.01751,-4.1057 -0.65994,-0.85425 -1.53067,-1.28141 -2.61227,-1.28141 z m -0.0277,0.65389 c 0.58662,0 1.02643,0.32258 1.31975,0.96761 0.2933,0.64504 0.44022,1.53404 0.44022,2.66721 0,0.87167 -0.44029,1.30773 -1.32023,1.30773 h -2.77696 c -0.31166,0 -0.44921,-0.13973 -0.41254,-0.41866 0.14664,-1.44697 0.45826,-2.56244 0.93489,-3.34694 0.49495,-0.78451 1.09993,-1.17695 1.81487,-1.17695 z" />
    <path
       id="text2-2-2-9-4-7-4-0-6-2-1-2"
       style="font-size:85.8651px;line-height:0.9;font-family:Noka;-inkscape-font-specification:Noka;text-align:start;letter-spacing:-8.83748px;writing-mode:lr-tb;direction:ltr;white-space:pre;shape-inside:url(#rect2-5-6-7-8-8-4-2-1-4);display:inline;fill:#000000;fill-opacity:1;stroke:none;stroke-width:0.776;stroke-linecap:round;stroke-linejoin:round;stroke-dasharray:none;stroke-opacity:1;paint-order:normal"
       d="m 304.37097,304.38326 c -3.97346,0.0785 -7.15781,1.9173 -8.86521,4.78007 -0.0751,0.12593 -0.13273,0.11106 -0.13273,-0.0355 v -4.12066 c 0,-0.14664 -0.11888,-0.26551 -0.26551,-0.26551 h -6.53726 c -0.14664,0 -0.26551,0.11887 -0.26551,0.26551 v 4.08592 c 0,0.14663 -0.0587,0.16207 -0.1354,0.0371 -1.62961,-2.65392 -4.65357,-4.31769 -8.75937,-4.38636 -0.14661,-0.002 -0.38436,-0.002 -0.531,-0.002 h -6.10061 -0.9267 -6.1421 c -0.14663,0 -0.26551,0.11887 -0.26551,0.26551 v 11.25844 c 0,0.14663 0.002,0.38479 -0.0138,0.53055 -0.0791,0.74549 -0.49495,1.29698 -1.14096,1.41427 -0.14408,0.0262 -0.3842,0.0262 -0.52828,0 -0.64602,-0.11729 -1.06193,-0.66877 -1.14097,-1.41427 -0.0155,-0.14576 -0.0138,-0.38392 -0.0138,-0.53055 v -11.25869 c 0,-0.14664 -0.11888,-0.26551 -0.26551,-0.26551 h -5.3523 -1.18496 -10.34884 -0.97804 -7.81868 c -0.14664,0 -0.38442,-4.1e-4 -0.53099,0.004 -3.74869,0.10469 -6.16311,2.43136 -6.28268,5.81902 -0.005,0.14654 -0.005,0.38437 0,0.53092 0.11957,3.38766 2.53399,5.71435 6.28268,5.81902 0.14658,0.004 0.38435,0.004 0.53099,0.004 h 0.60416 c 0.14663,0 0.38519,-0.003 0.53018,0.0181 0.44289,0.0645 0.66636,0.29303 0.75115,0.54647 0.0464,0.13845 0.0462,0.3844 -0.005,0.52104 -0.0895,0.23981 -0.3186,0.46122 -0.77212,0.52279 -0.14517,0.0197 -0.38362,0.0169 -0.53026,0.0169 h -6.74365 c -0.14664,0 -0.26551,0.11887 -0.26551,0.26551 v 5.01575 c 0,0.14663 0.11887,0.26551 0.26551,0.26551 h 8.54937 c 0.14663,0 0.38441,4.2e-4 0.53099,-0.004 3.81973,-0.11009 6.21396,-2.59908 6.33394,-5.94802 0.005,-0.14655 0.005,-0.38438 -7e-5,-0.53093 -0.12081,-3.3246 -2.51486,-5.81204 -6.33387,-5.92209 -0.14658,-0.004 -0.38436,-0.004 -0.53099,-0.004 h -0.44911 c -0.14663,0 -0.38528,0.003 -0.53008,-0.0192 -0.3351,-0.0516 -0.56422,-0.20396 -0.66228,-0.41987 -0.0601,-0.13223 -0.0609,-0.38235 -0.004,-0.51635 0.0958,-0.22512 0.3268,-0.37157 0.66672,-0.41992 0.14468,-0.0206 0.38289,-0.0176 0.52952,-0.0176 h 5.35282 0.97805 1.75644 c 0.14664,0 0.26551,0.11888 0.26551,0.26551 v 13.27054 c 0,0.14664 0.11888,0.26552 0.26551,0.26552 h 6.53726 c 0.14663,0 0.26551,-0.11888 0.26551,-0.26552 v -13.27054 c 0,-0.14663 0.11887,-0.26551 0.26551,-0.26551 h 0.9931 c 0.14664,0 0.26551,0.11888 0.26551,0.26551 v 5.40208 c 0,0.14664 -3.4e-4,0.38441 0.003,0.531 0.11357,4.8151 3.32438,7.85522 8.21853,7.96105 0.1466,0.003 0.38437,0.003 0.53097,3e-5 3.31057,-0.0709 5.83743,-1.47133 7.16985,-3.8482 0.0717,-0.12788 0.12561,-0.11498 0.12561,0.0317 v 3.19292 c 0,0.14664 0.11887,0.26552 0.26551,0.26552 h 7.05324 c 0.14664,0 0.3844,2.5e-4 0.53101,-0.002 4.07931,-0.0707 7.10457,-1.77164 8.73564,-4.48919 0.0755,-0.12574 0.13318,-0.11083 0.13318,0.0358 v 4.19017 c 0,0.14663 0.11888,0.26551 0.26551,0.26551 h 6.53727 c 0.14663,0 0.26551,-0.11888 0.26551,-0.26551 v -4.23216 c 0,-0.14664 0.0567,-0.16102 0.13065,-0.0343 1.7069,2.92435 4.89221,4.8099 8.8673,4.8903 0.14661,0.003 0.38438,0.003 0.53099,2e-5 5.95589,-0.11947 10.12902,-4.25814 10.25665,-9.87015 0.003,-0.14659 0.003,-0.38439 -1.1e-4,-0.53098 -0.12989,-5.50948 -4.30236,-9.54723 -10.25654,-9.66382 -0.14661,-0.003 -0.38438,-0.003 -0.531,2e-5 z m -25.70876,6.54969 h 0.0363 c 0.14663,0 0.38447,-7.6e-4 0.53093,0.006 2.00433,0.0952 3.09261,1.28119 3.18503,3.15937 0.007,0.14643 0.007,0.38435 -1.7e-4,0.53078 -0.0925,1.83322 -1.15875,3.03695 -3.15896,3.13381 -0.14644,0.007 -0.38427,0.006 -0.5309,0.006 h -0.0622 c -0.14663,0 -0.26551,-0.11888 -0.26551,-0.26551 v -6.30545 c 0,-0.14664 0.11888,-0.26551 0.26551,-0.26551 z m 26.23961,0.0342 c 1.82054,0.11508 2.99924,1.41702 3.10629,3.18323 0.009,0.14634 0.009,0.38436 -1.9e-4,0.5307 -0.10828,1.74526 -1.28672,3.06623 -3.10624,3.1831 -0.14624,0.009 -0.38423,0.009 -0.53054,-2.2e-4 -1.79617,-0.11829 -2.97211,-1.4388 -3.08019,-3.18308 -0.009,-0.14622 -0.009,-0.38416 -1.8e-4,-0.5305 0.10692,-1.76517 1.28317,-3.0666 3.08037,-3.18302 0.14631,-0.009 0.38435,-0.009 0.53068,-2.1e-4 z" />
  </g>
</svg>
