<?xml version="1.0" encoding="UTF-8" standalone="no"?>
<!-- Created with Inkscape (http://www.inkscape.org/) -->

<svg
   width="86.442223"
   height="14.384399"
   viewBox="0 0 86.442223 14.384399"
   version="1.1"
   id="svg1"
   xml:space="preserve"
   xmlns="http://www.w3.org/2000/svg"
   xmlns:svg="http://www.w3.org/2000/svg"><defs
     id="defs1" /><g
     id="layer1"
     transform="translate(-4.0731355e-4,-1640.2595)"><g
       id="g1-0-8-6-1"
       transform="matrix(0.70424262,0,0,0.70424262,-25.57075,1605.2051)"
       style="stroke-width:5.3668"><path
         d="m 296.8598,131.0148 q 0,-6.78334 1.11625,-10.13208 1.20211,-3.34874 2.91941,-3.34874 0.85865,0 1.54557,0.94452 0.68692,0.94452 1.37384,2.06076 0.77279,1.11625 1.45971,2.06076 0.68692,0.94452 1.54557,0.94452 0.51519,0 1.03038,-0.60106 0.60106,-0.68692 1.03038,-1.54557 0.51519,-0.85865 0.77279,-1.7173 0.34346,-0.94452 0.34346,-1.54557 0,-1.20211 -1.88903,-2.31836 -1.80317,-1.11625 -4.29326,-1.11625 -2.57595,0 -4.98017,1.11625 -2.31836,1.03038 -4.20739,3.09114 -1.88904,1.9749 -3.09115,4.98018 -1.20211,2.91941 -1.4597,6.61161 l -0.34346,4.37912 q -0.17173,1.03038 -0.94452,1.45971 l -1.54557,0.77279 q -1.63144,0.85865 -1.63144,1.63143 0,0.42933 0.34346,0.85865 0.42933,0.34346 0.94452,0.34346 h 1.54557 q 1.11625,0 1.11625,1.11625 v 26.70404 q 0,1.45971 -0.34346,2.2325 -0.34347,0.77278 -1.54558,1.37384 -1.54557,0.68692 -2.49008,0.68692 -0.94452,-0.0859 -0.94452,1.11625 0,1.37384 1.63144,1.37384 1.4597,0 3.26287,-0.2576 1.80317,-0.25759 3.94979,-0.25759 2.14663,0 4.12153,0.25759 1.9749,0.2576 3.6922,0.2576 1.88903,0 1.88903,-1.20211 0,-0.68692 -0.34346,-0.94452 -0.2576,-0.2576 -0.85865,-0.34346 -0.60106,-0.17173 -1.45971,-0.2576 -0.77278,-0.17173 -1.80316,-0.68692 -0.94452,-0.42932 -1.28798,-1.11624 -0.2576,-0.77279 -0.2576,-2.2325 v -26.70404 q 0,-1.11625 1.03038,-1.11625 h 6.43989 q 0.85865,0 0.94451,-0.34346 0.17173,-0.42932 0.17173,-1.28797 v -0.42933 q 0,-0.68692 -0.17173,-1.03038 -0.17173,-0.34346 -0.94451,-0.34346 h -6.35402 q -1.03038,0 -1.03038,-1.11625 z m 16.0745,-10.99073 q -1.54557,0 -2.66182,1.45971 -1.11625,1.4597 -1.11625,3.26287 0,1.80317 1.11625,3.26287 1.11625,1.45971 2.66182,1.45971 1.54557,0 2.66181,-1.45971 1.11625,-1.4597 1.11625,-3.26287 0,-1.80317 -1.11625,-3.26287 -1.11624,-1.45971 -2.66181,-1.45971 z m 3.26287,16.4861 q 0,-1.80317 -0.85865,-1.80317 -0.34346,0 -0.77279,0.42933 -0.34346,0.34346 -0.94451,0.94451 -0.60106,0.60106 -1.54557,1.37385 -0.85866,0.77278 -2.14663,1.54557 -2.14663,1.20211 -3.34874,1.80316 -1.11625,0.60106 -1.11625,1.54558 0,0.85865 0.51519,0.94451 0.60106,0 1.20212,0.2576 0.68692,0.17173 1.20211,0.94451 0.60105,0.77279 0.60105,3.09115 v 20.26416 q 0,1.7173 -0.25759,2.49009 -0.17173,0.68692 -1.11625,1.20211 -0.51519,0.25759 -0.94452,0.34346 -0.42932,0 -0.85865,0.0859 -0.34346,0.0859 -0.60105,0.34347 -0.17173,0.25759 -0.17173,0.85865 0,1.4597 1.28797,1.4597 0.94452,0 2.49009,-0.34346 1.54557,-0.25759 3.77807,-0.25759 2.06076,0 3.86393,0.25759 1.80316,0.34346 3.09114,0.34346 1.54557,0 1.54557,-1.37384 0,-0.60105 -0.34346,-0.85865 -0.25759,-0.2576 -0.77279,-0.34346 -0.42932,-0.17173 -1.11624,-0.2576 -0.60106,-0.0859 -1.28798,-0.42932 -0.77278,-0.42933 -1.11624,-1.20211 -0.2576,-0.77279 -0.2576,-2.31836 z m 18.13536,-14.33947 q 0,-1.80317 0.0859,-3.26288 0.17173,-1.4597 0.17173,-2.57595 0,-0.77278 -0.17173,-1.20211 -0.17173,-0.42933 -0.85865,-0.42933 -0.42933,0 -1.88904,1.03039 -1.37384,0.94451 -4.37912,2.06076 -1.54557,0.60105 -2.74768,0.94451 -1.11625,0.2576 -1.11625,1.20212 0,0.51519 0.51519,0.77278 0.60106,0.2576 1.28798,0.51519 0.77279,0.2576 1.28798,0.77279 0.60105,0.51519 0.60105,1.63144 v 44.64985 q 0,1.28797 -0.25759,2.06076 -0.2576,0.68692 -1.45971,1.11624 -1.37384,0.51519 -2.31836,0.51519 -0.85865,0 -0.85865,1.20212 0,1.37384 1.54557,1.37384 1.20212,0 2.91942,-0.2576 1.80316,-0.25759 4.03566,-0.25759 2.14662,0 4.03566,0.25759 1.88903,0.2576 3.34874,0.2576 1.7173,0 1.7173,-1.20211 0,-0.77279 -0.34346,-1.03038 -0.34346,-0.34347 -0.94452,-0.42933 -0.51519,-0.0859 -1.20211,-0.0859 -0.68692,-0.0859 -1.37384,-0.42932 -1.63144,-0.77279 -1.63144,-3.60634 z"
         id="text2-2-2-0-5-3-0-1-7-7-68"
         style="font-size:85.8651px;line-height:0.9;font-family:'Apple Garamond';-inkscape-font-specification:'Apple Garamond, Normal';letter-spacing:-0.840884px;white-space:pre;stroke-width:2.8295"
         transform="matrix(0.33456124,0,0,0.33456124,35.163653,11.689048)"
         aria-label="fil" /><path
         d="m 300.38027,147.41504 h -5.58123 q -1.03038,0 -1.03038,-0.77279 v -0.17173 l 0.25759,-1.37384 q 0.68692,-3.52047 2.91941,-5.83883 2.2325,-2.31835 5.23777,-2.31835 2.74769,0 4.46499,1.80316 1.80317,1.80317 1.80317,3.9498 0,2.83354 -1.9749,3.77806 -1.88903,0.94452 -6.09642,0.94452 z m 12.70803,2.66181 q 1.54557,0 2.23249,-0.34346 0.68693,-0.34346 0.68693,-1.4597 0,-2.74769 -1.03039,-5.15191 -0.94451,-2.40422 -2.74768,-4.20739 -1.80317,-1.80316 -4.37912,-2.83355 -2.57595,-1.11624 -5.6671,-1.11624 -3.60633,0 -6.69747,1.4597 -3.00528,1.45971 -5.23777,4.12153 -2.2325,2.66182 -3.52047,6.52575 -1.20211,3.77806 -1.20211,8.50064 0,4.72258 1.11624,8.50065 1.11625,3.77806 3.17701,6.43988 2.06076,2.66182 4.89431,4.03566 2.91941,1.4597 6.43988,1.4597 3.34874,0 6.01056,-1.11624 2.66182,-1.11625 4.55085,-2.57595 1.9749,-1.54558 3.00528,-3.09115 1.03038,-1.54557 1.03038,-2.49009 0,-0.94451 -0.68692,-0.94451 -0.2576,0 -0.94452,0.77278 -0.60105,0.77279 -1.80316,1.71731 -1.11625,0.94451 -2.91942,1.7173 -1.7173,0.77278 -4.12152,0.77278 -5.4095,0 -8.84411,-4.63671 -3.34874,-4.63672 -3.34874,-12.62217 v -2.06076 q 0,-0.85865 0.17173,-1.11625 0.17174,-0.2576 0.85866,-0.2576 z m -4.63671,-28.42134 q 2.06076,-1.54557 2.06076,-3.43461 0,-1.37384 -0.77279,-2.14662 -0.68692,-0.85865 -1.63143,-0.85865 -0.94452,0 -1.63144,0.68692 -0.68692,0.60105 -1.63144,1.80316 l -9.70275,12.62217 h 2.23249 z"
         id="text2-2-2-0-5-3-8-1-61-3-8-5"
         style="font-size:85.8651px;line-height:0.9;font-family:'Apple Garamond';-inkscape-font-specification:'Apple Garamond, Normal';letter-spacing:-0.840884px;white-space:pre;stroke-width:2.8295"
         transform="matrix(0.33456124,0,0,0.33456124,53.331157,11.229447)"
         aria-label="é" /></g><path
       d="m 6.6445529,1654.3904 c 2.8604221,0 4.6346081,-1.8647 4.6346081,-4.3631 0,-2.4801 -1.774186,-4.3449 -4.6346081,-4.3449 H 5.956603 c -0.4344943,0 -0.6879496,-0.1992 -0.6879496,-0.4888 0,-0.3078 0.2534553,-0.4888 0.6879496,-0.4888 h 4.815647 v -3.8923 H 4.5988078 c -2.8061106,0 -4.59840048644,1.7379 -4.59840048644,4.2725 0,2.5346 1.79228988644,4.2725 4.59840048644,4.2725 h 0.7965736 c 0.5612216,0 0.742261,0.3078 0.742261,0.5793 0,0.2535 -0.1810394,0.5613 -0.7603652,0.5613 H 0.2719666 v 3.8923 z m 11.5778101,0 v -9.6856 h 1.900914 v -3.8923 h -8.78041 v 3.8923 h 1.919017 v 9.6856 z m 14.23907,-5.5217 v -8.0562 h -4.96048 v 8.2735 c 0,0.6879 -0.380184,1.1948 -0.995717,1.1948 -0.615536,0 -0.995715,-0.5069 -0.995715,-1.1948 v -8.2735 H 20.54904 v 8.0562 c 0,3.5484 2.353513,5.7752 5.956196,5.7752 3.620788,0 5.956197,-2.2268 5.956197,-5.7752 z m 5.929363,5.5217 c 4.544089,0 7.277785,-2.8423 7.277785,-6.8614 0,-3.9286 -2.715592,-6.7165 -7.295889,-6.7165 h -5.304451 v 13.5779 z m -0.144829,-9.233 c 1.593147,0 2.425928,0.9233 2.425928,2.4078 0,1.4484 -0.814679,2.3898 -2.407828,2.3898 h -0.41639 v -4.7976 z m 12.772642,9.233 v -13.5779 h -4.960483 v 13.5779 z m 15.144257,-6.8614 c 0,-4.0191 -3.041459,-6.97 -7.386406,-6.97 -4.326839,0 -7.368302,2.9509 -7.368302,6.97 0,4.0915 3.041463,7.1149 7.368302,7.1149 4.344947,0 7.386406,-3.0234 7.386406,-7.1149 z m -9.739916,0.073 c 0,-1.394 0.923297,-2.4258 2.35351,-2.4258 1.448316,0 2.371618,1.0318 2.371618,2.4258 0,1.3759 -0.923302,2.426 -2.371618,2.426 -1.430213,0 -2.35351,-1.0501 -2.35351,-2.426 z"
       id="text2-2-2-9-4-7-4-7"
       style="font-size:402.113px;line-height:0.9;font-family:Noka;-inkscape-font-specification:Noka;letter-spacing:-13.4636px;white-space:pre;stroke-width:0.666672"
       aria-label="STUDIO" /></g></svg>
