<?xml version="1.0" encoding="UTF-8" standalone="no"?>
<!-- Created with Inkscape (http://www.inkscape.org/) -->

<svg
   width="110.68868mm"
   height="20.775169mm"
   viewBox="0 0 110.68868 20.775169"
   version="1.1"
   id="svg1"
   sodipodi:docname="logo-neww.svg"
   inkscape:export-filename="logo-neww.svg"
   inkscape:export-xdpi="300"
   inkscape:export-ydpi="300"
   inkscape:version="1.4.2 (f4327f4, 2025-05-13)"
   xmlns:inkscape="http://www.inkscape.org/namespaces/inkscape"
   xmlns:sodipodi="http://sodipodi.sourceforge.net/DTD/sodipodi-0.dtd"
   xmlns="http://www.w3.org/2000/svg"
   xmlns:svg="http://www.w3.org/2000/svg">
  <sodipodi:namedview
     id="namedview1"
     pagecolor="#ffffff"
     bordercolor="#000000"
     borderopacity="0.25"
     inkscape:showpageshadow="2"
     inkscape:pageopacity="0.0"
     inkscape:pagecheckerboard="0"
     inkscape:deskcolor="#d1d1d1"
     inkscape:document-units="mm"
     inkscape:zoom="2.1226199"
     inkscape:cx="226.60675"
     inkscape:cy="80.325262"
     inkscape:window-width="1920"
     inkscape:window-height="1009"
     inkscape:window-x="1912"
     inkscape:window-y="-8"
     inkscape:window-maximized="1"
     inkscape:current-layer="layer1" />
  <defs
     id="defs1">
    <rect
       x="283.46457"
       y="113.38582"
       width="472.44095"
       height="113.38582"
       id="rect2-5-6-1-4-7-8-5-4-7-8-1-11-8-1" />
    <rect
       x="283.46457"
       y="113.38582"
       width="472.44095"
       height="113.38582"
       id="rect2-5-6-7-8-8-4-2-1-4" />
  </defs>
  <g
     id="layer1"
     transform="translate(-229.8405,-304.38168)">
    <path
       id="text2-2-2-0-5-3-0-8-5-2-4-2-7-3-2-61-5-4-5"
       style="font-style:normal;font-variant:normal;font-weight:normal;font-stretch:normal;font-size:85.8651px;line-height:0.9;font-family:'Instrument Serif';-inkscape-font-specification:'Instrument Serif, Normal';font-variant-ligatures:normal;font-variant-caps:normal;font-variant-numeric:normal;font-variant-east-asian:normal;text-align:start;letter-spacing:-0.840884px;writing-mode:lr-tb;direction:ltr;white-space:pre;shape-inside:url(#rect2-5-6-1-4-7-8-5-4-7-8-1-11-8-1);display:inline;fill:#000000;fill-opacity:1;stroke-width:0.176;stroke:none;stroke-dasharray:none"
       d="m 322.31736,305.13393 c -1.09606,0 -2.01876,0.24297 -2.76773,0.72939 -0.74898,0.48642 -1.31547,1.12047 -1.69908,1.90221 -0.36536,0.78176 -0.54764,1.62465 -0.54764,2.52801 v 0.15609 c 0,0.6254 -0.4294,0.98144 -1.28801,1.0683 -0.2192,0.0173 -0.32876,0.11317 -0.32876,0.28688 0,0.17372 0.10956,0.26063 0.32876,0.26063 h 0.63045 c 0.43842,0 0.65756,0.20839 0.65756,0.62532 v 10.1889 c 0,0.36482 -0.0639,0.63394 -0.19175,0.80768 -0.12786,0.15634 -0.4202,0.25166 -0.8769,0.2864 l -0.54812,0.0525 c -0.23748,0.0174 -0.35638,0.12156 -0.35638,0.31266 0,0.1911 0.13708,0.28641 0.41111,0.28641 h 4.79507 c 0.27402,0 0.4111,-0.10419 0.4111,-0.31266 0,-0.15635 -0.10028,-0.25167 -0.30117,-0.28641 l -0.68514,-0.0783 c -0.31056,-0.0348 -0.52085,-0.13053 -0.63045,-0.28688 -0.1096,-0.15636 -0.16414,-0.4166 -0.16414,-0.78143 v -10.5015 c 0,-0.20846 0.10957,-0.31266 0.32877,-0.31266 h 4.21986 c 0.25575,0 0.3835,0.12147 0.3835,0.36469 v 10.44952 c 0,0.36483 -0.0639,0.62507 -0.19175,0.78143 -0.12787,0.13898 -0.42021,0.24316 -0.8769,0.31266 l -0.32877,0.0525 c -0.23749,0.0522 -0.35638,0.15631 -0.35638,0.31266 0,0.1911 0.13707,0.2864 0.41108,0.2864 h 4.44318 0.13307 4.74433 c 0.21921,0 0.32878,-0.0953 0.32878,-0.2864 0,-0.17372 -0.10027,-0.27792 -0.30118,-0.31266 l -0.63044,-0.0783 c -0.38361,-0.0522 -0.63911,-0.14791 -0.76698,-0.28688 -0.10961,-0.15636 -0.16463,-0.4166 -0.16463,-0.78143 v -17.1204 c 0,-0.27796 -0.10027,-0.41719 -0.30117,-0.41719 -0.14614,0 -0.36528,0.0869 -0.65755,0.26063 -0.23747,0.13897 -0.53915,0.27822 -0.90451,0.41719 -0.36537,0.13898 -0.80359,0.26046 -1.3151,0.36469 -0.20094,0.0348 -0.30167,0.13894 -0.30167,0.31266 0,0.17373 0.10068,0.27792 0.30167,0.31267 l 0.62995,0.0783 c 0.25575,0.0173 0.42966,0.087 0.521,0.2086 0.10961,0.1216 0.16415,0.3384 0.16415,0.65109 v 14.93178 c 0,0.36483 -0.0913,0.62507 -0.27407,0.78143 -0.18266,0.15635 -0.46566,0.26054 -0.84928,0.31266 l -0.26077,0.0356 -0.53826,-0.0614 c -0.31054,-0.0348 -0.52033,-0.13053 -0.62994,-0.28687 -0.10961,-0.15636 -0.16464,-0.41661 -0.16464,-0.78143 v -10.91869 c 0,-0.41693 -0.21912,-0.62532 -0.65756,-0.62532 h -5.80902 c -0.2192,0 -0.32877,-0.10419 -0.32877,-0.31266 v -1.7719 c 0,-0.88598 0.1189,-1.57236 0.35638,-2.05878 0.25575,-0.48642 0.57509,-0.82517 0.95872,-1.01626 0.40188,-0.19109 0.8313,-0.28642 1.28799,-0.28642 0.52977,0 0.92234,0.12149 1.17807,0.36469 0.25575,0.24322 0.4567,0.52963 0.60285,0.85971 0.1644,0.3127 0.33833,0.59071 0.52101,0.83391 0.18267,0.24322 0.46567,0.36517 0.84929,0.36517 0.38361,0 0.65777,-0.0957 0.82219,-0.28688 0.18268,-0.20848 0.27356,-0.4776 0.27356,-0.80767 0,-0.55592 -0.33754,-1.0423 -1.01343,-1.45924 -0.6759,-0.41694 -1.57108,-0.62532 -2.68541,-0.62532 z m 16.62217,0.14062 c -0.23749,0 -0.43843,0.035 -0.60284,0.10454 -0.16441,0.0694 -0.33785,0.17368 -0.52053,0.31267 l -3.94582,2.91847 c -0.29227,0.1911 -0.37432,0.3822 -0.24645,0.57329 0.1096,0.1911 0.3194,0.22567 0.62995,0.10407 l 4.87743,-2.11082 c 0.32882,-0.13898 0.54844,-0.28662 0.65804,-0.44297 0.12787,-0.17372 0.19175,-0.37323 0.19175,-0.59907 0,-0.20846 -0.0914,-0.39956 -0.27407,-0.5733 -0.18267,-0.19109 -0.43866,-0.28688 -0.76746,-0.28688 z m -2.0274,5.83696 c -0.8951,0 -1.70825,0.29531 -2.43894,0.88596 -0.73071,0.59066 -1.30603,1.40739 -1.7262,2.44972 -0.42016,1.04234 -0.63045,2.24968 -0.63045,3.62209 0,1.33767 0.20096,2.51883 0.60285,3.54379 0.42015,1.0076 0.97731,1.78929 1.67148,2.3452 0.69418,0.55591 1.47979,0.83392 2.35665,0.83392 0.91338,0 1.68966,-0.3037 2.32902,-0.91173 0.63938,-0.6254 1.10516,-1.71126 1.39742,-3.25739 0.0549,-0.34745 -0.0273,-0.52126 -0.24645,-0.52126 -0.18267,0 -0.30156,0.0957 -0.35639,0.28688 -0.27401,1.11182 -0.6302,1.90192 -1.06862,2.37097 -0.43843,0.46905 -1.00443,0.7036 -1.69862,0.7036 -0.87683,0 -1.59859,-0.46023 -2.16488,-1.38095 -0.5663,-0.92073 -0.8493,-2.30189 -0.8493,-4.14334 0,-0.39956 0.18278,-0.59907 0.54812,-0.59907 h 5.2062 c 0.4567,0 0.68516,-0.28689 0.68516,-0.86017 0,-1.89357 -0.33803,-3.25744 -1.01394,-4.09131 -0.65762,-0.85125 -1.5253,-1.27691 -2.60311,-1.27691 z m -0.0276,0.65159 c 0.58456,0 1.02283,0.32145 1.31512,0.96422 0.29227,0.64278 0.43868,1.52866 0.43868,2.65786 0,0.86861 -0.43875,1.30314 -1.3156,1.30314 h -2.76723 c -0.31056,0 -0.44763,-0.13924 -0.41109,-0.41719 0.14613,-1.4419 0.45665,-2.55345 0.93161,-3.3352 0.49322,-0.78176 1.09608,-1.17283 1.80851,-1.17283 z"
       inkscape:export-filename="text2-2-2-0-5-3-0-8-5-2-4-2-7-3-2-61-5-4-5.svg"
       inkscape:export-xdpi="300"
       inkscape:export-ydpi="300" />
    <path
       style="font-size:85.8651px;line-height:0.9;font-family:Noka;-inkscape-font-specification:Noka;letter-spacing:-8.83748px;baseline-shift:baseline;white-space:pre;shape-inside:url(#rect2-5-6-7-8-8-4-2-1-4);display:inline;overflow:visible;vector-effect:none;stroke-linecap:round;stroke-linejoin:round;enable-background:accumulate;stop-color:#000000;stop-opacity:1;opacity:1;stroke:none;fill:#000000;fill-opacity:1"
       d="m 301.77734,221.83398 c -3.70218,0.0731 -6.70981,1.69859 -8.57031,4.21485 v -3.20508 c 0,-0.35582 -0.29652,-0.65234 -0.65234,-0.65234 h -6.51367 c -0.35583,0 -0.65235,0.29652 -0.65235,0.65234 v 3.19922 c -1.78454,-2.32072 -4.67358,-3.78611 -8.4707,-3.84961 -0.15184,-0.002 -0.38904,-0.002 -0.53516,-0.002 h -6.07812 -0.92383 -6.12109 c -0.35583,0 -0.65235,0.29652 -0.65235,0.65234 v 11.21875 c 0,0.14966 -0.001,0.38947 -0.0117,0.48633 a 0.38803881,0.38803881 0 0 0 0,0.002 c -0.0659,0.62094 -0.3581,0.98444 -0.82031,1.06836 -0.069,0.0125 -0.31972,0.0125 -0.38867,0 -0.46222,-0.0839 -0.75447,-0.44742 -0.82031,-1.06836 -0.0104,-0.0982 -0.0117,-0.33915 -0.0117,-0.48828 v -11.21875 c 0,-0.35582 -0.29652,-0.65234 -0.65235,-0.65234 h -5.33203 -1.18164 -10.3125 -0.97461 -7.79101 c -0.1454,0 -0.38158,-9.1e-4 -0.54102,0.004 -1.94562,0.0543 -3.57964,0.69034 -4.74023,1.77735 -1.1606,1.08701 -1.83378,2.61776 -1.89649,4.39453 -0.005,0.16038 -0.005,0.39626 0,0.55664 0.0627,1.77676 0.7359,3.30947 1.89649,4.39648 1.16059,1.08702 2.79461,1.72302 4.74023,1.77735 0.15755,0.004 0.3949,0.004 0.54102,0.004 h 0.60156 c 0.15143,0 0.39333,0.002 0.47266,0.0137 0.33045,0.0481 0.39387,0.15864 0.43554,0.28321 0.002,0.006 -0.003,0.26648 0,0.25976 a 0.38803881,0.38803881 0 0 0 0,0.002 c -0.0407,0.10908 -0.11071,0.22447 -0.45703,0.27148 -0.0838,0.0114 -0.32548,0.0137 -0.47656,0.0137 h -6.7207 c -0.35583,0 -0.65235,0.29652 -0.65235,0.65235 v 4.99804 c 0,0.35583 0.29652,0.65235 0.65235,0.65235 h 8.51953 c 0.14537,0 0.38153,9.2e-4 0.54101,-0.004 3.97002,-0.11443 6.56158,-2.78588 6.6875,-6.30078 a 0.38803881,0.38803881 0 0 0 0,-0.002 c 0.005,-0.16038 0.006,-0.39411 0,-0.55469 a 0.38803881,0.38803881 0 0 0 0,-0.002 c -0.12689,-3.49183 -2.71828,-6.15906 -6.6875,-6.27344 a 0.38803881,0.38803881 0 0 0 -0.002,0 c -0.15754,-0.004 -0.39294,-0.006 -0.53906,-0.006 h -0.44727 c -0.15143,0 -0.39272,-0.002 -0.46875,-0.0137 -0.24665,-0.038 -0.33514,-0.12476 -0.36719,-0.19532 0.008,0.0174 -0.009,-0.0417 -0.01,-0.0976 -3.5e-4,-0.055 0.0147,-0.11435 0.01,-0.10352 0.0313,-0.0734 0.10844,-0.15125 0.36328,-0.1875 0.0802,-0.0114 0.32123,-0.0137 0.47266,-0.0137 h 5.33399 0.9746 1.62696 v 13.10156 c 0,0.35583 0.29652,0.65235 0.65234,0.65235 h 6.51367 c 0.35583,0 0.65235,-0.29652 0.65235,-0.65235 v -13.10156 h 0.74414 v 5.25977 c 0,0.14551 -0.002,0.38279 0.002,0.53906 0.0586,2.48335 0.92527,4.54992 2.42774,5.99609 1.50246,1.44618 3.62563,2.26003 6.14257,2.31446 0.15469,0.003 0.39031,0.003 0.54493,0 3.0036,-0.0643 5.38136,-1.26125 6.87304,-3.24415 v 2.23633 c 0,0.35583 0.29848,0.65235 0.6543,0.65235 h 7.02734 c 0.14568,0 0.38216,4e-4 0.53516,-0.002 a 0.38803881,0.38803881 0 0 0 0.002,0 c 3.77214,-0.0653 6.65658,-1.56395 8.44141,-3.93359 v 3.2832 c 0,0.35583 0.29847,0.65235 0.6543,0.65235 h 6.51367 c 0.35582,0 0.65234,-0.29652 0.65234,-0.65235 v -3.29492 c 1.85954,2.56479 4.86782,4.2298 8.57031,4.30469 0.1547,0.003 0.39027,0.003 0.54493,0 6.111,-0.12258 10.47011,-4.43465 10.60156,-10.21485 a 0.38803881,0.38803881 0 0 0 0,-0.002 c 0.003,-0.15469 0.003,-0.38991 0,-0.54492 -0.13395,-5.68143 -4.4965,-9.89022 -10.60156,-10.00977 -0.15471,-0.003 -0.39016,-0.003 -0.54493,0 z m 0.0156,0.77539 c 0.13743,-0.003 0.37618,-0.003 0.51367,0 5.76154,0.11282 9.71491,3.95306 9.83984,9.25196 0.003,0.13715 0.003,0.37425 0,0.51172 -0.1229,5.40446 -4.08084,9.33956 -9.83984,9.45507 -0.13755,0.003 -0.37619,0.003 -0.51367,0 -3.84272,-0.0777 -6.87623,-1.88438 -8.50781,-4.67968 -0.0309,-0.053 -0.0631,-0.10452 -0.12696,-0.16211 -0.0638,-0.0576 -0.20367,-0.15415 -0.39843,-0.10352 -0.19476,0.0506 -0.27396,0.20816 -0.30079,0.29102 -0.0268,0.0828 -0.0273,0.14354 -0.0273,0.20508 v 4.09375 h -6.26758 v -4.05274 c 0,-0.062 -0.002,-0.12168 -0.0293,-0.20508 -0.0274,-0.0834 -0.10614,-0.23837 -0.29688,-0.28906 -0.19073,-0.0507 -0.33323,0.0407 -0.39844,0.0977 -0.0652,0.0569 -0.0971,0.10721 -0.1289,0.16015 -1.55318,2.58777 -4.4184,4.21657 -8.37891,4.28516 -0.1392,0.002 -0.37687,0.002 -0.52344,0.002 h -6.90429 v -3.05664 c 0,-0.0603 -0.002,-0.11963 -0.0274,-0.20117 -0.0254,-0.0815 -0.0991,-0.24432 -0.30273,-0.29492 -0.20366,-0.0506 -0.34156,0.0551 -0.40235,0.11328 -0.0608,0.0582 -0.0898,0.10775 -0.11914,0.16016 -1.25721,2.24273 -3.62062,3.56836 -6.81445,3.63671 -0.13757,0.003 -0.3762,0.003 -0.51367,0 -2.36005,-0.051 -4.27429,-0.80318 -5.61914,-2.09765 -1.34485,-1.29447 -2.13486,-3.14217 -2.18946,-5.45703 -0.003,-0.1359 -0.004,-0.37281 -0.004,-0.51953 v -5.38282 c 0,-0.35582 -0.29652,-0.65234 -0.65235,-0.65234 h -0.99023 c -0.35582,0 -0.65234,0.29652 -0.65234,0.65234 v 13.09961 h -6.26758 v -13.09961 c 0,-0.35582 -0.29652,-0.65234 -0.65235,-0.65234 h -1.75 -0.9746 -5.33399 c -0.14081,0 -0.37387,-0.008 -0.58203,0.0215 -0.42262,0.0601 -0.80705,0.27515 -0.9668,0.65039 -0.0625,0.14731 -0.0731,0.27715 -0.0723,0.41211 8.5e-4,0.13497 0.0123,0.26488 0.0801,0.41407 0.16339,0.35974 0.53192,0.57774 0.95312,0.64257 0.21255,0.0326 0.44708,0.0234 0.58789,0.0234 h 0.44727 c 0.14557,0 0.38273,2.6e-4 0.51757,0.004 3.64202,0.10495 5.82166,2.39327 5.93555,5.52734 0.005,0.13148 0.005,0.37027 0,0.50196 -0.11405,3.15845 -2.29366,5.44776 -5.93555,5.55273 -0.13263,0.004 -0.37071,0.004 -0.51757,0.004 h -8.39649 v -4.75196 h 6.59766 c 0.14116,0 0.37453,0.008 0.58008,-0.0195 0.55754,-0.0757 0.94239,-0.40264 1.08007,-0.77148 0.10371,-0.27812 0.0998,-0.50855 0.01,-0.77735 -0.12731,-0.38053 -0.50832,-0.72423 -1.06055,-0.80468 -0.20963,-0.0305 -0.44317,-0.0234 -0.58398,-0.0234 h -0.60156 c -0.14612,0 -0.38494,-2.2e-4 -0.51953,-0.004 -1.78992,-0.05 -3.22442,-0.62413 -4.23047,-1.5664 -1.00606,-0.94228 -1.59591,-2.25841 -1.65235,-3.85743 -0.005,-0.13168 -0.005,-0.37027 0,-0.50195 0.0564,-1.59901 0.64629,-2.9132 1.65235,-3.85547 1.00605,-0.94227 2.44055,-1.51837 4.23047,-1.56836 a 0.38803881,0.38803881 0 0 0 0.002,0 c 0.13268,-0.004 0.37073,-0.004 0.51758,-0.004 h 7.79101 0.97461 10.3125 1.18164 5.20899 v 11.0957 c 0,0.14311 -0.005,0.37802 0.0156,0.57031 0.0917,0.86485 0.62785,1.60016 1.45313,1.75 0.21821,0.0397 0.4478,0.0397 0.66601,0 0.82528,-0.14984 1.36139,-0.88518 1.45313,-1.75 0.0209,-0.19364 0.0156,-0.42773 0.0156,-0.57031 v -11.0957 h 5.99805 0.92383 6.07812 c 0.14612,0 0.38308,3e-5 0.52344,0.002 3.98981,0.0667 6.85456,1.66171 8.4043,4.18555 0.0325,0.053 0.0664,0.10375 0.13281,0.16015 0.0664,0.0564 0.20727,0.14643 0.39453,0.0957 0.18726,-0.0507 0.26698,-0.20324 0.29492,-0.28711 0.0279,-0.0839 0.0312,-0.14461 0.0312,-0.20703 v -3.94922 h 6.26758 v 3.98242 c 0,0.0619 0.002,0.12369 0.0293,0.20703 0.0274,0.0833 0.10558,0.23647 0.29687,0.28711 0.1913,0.0506 0.33341,-0.0425 0.39844,-0.0996 0.065,-0.0571 0.0973,-0.10713 0.12891,-0.16016 1.63015,-2.73323 4.66382,-4.4983 8.50781,-4.57422 z m -25.625,5.75196 c -0.20201,5e-4 -0.25294,0.22093 -0.37305,0.36914 -0.091,0.11232 -0.28125,0.12807 -0.28125,0.28125 v 6.28515 c 0,0.35583 0.29848,0.65235 0.6543,0.65235 h 0.0605 c 0.14435,0 0.38105,2.3e-4 0.54882,-0.008 1.07083,-0.0519 1.94178,-0.41012 2.54493,-1.0293 0.60314,-0.61918 0.92103,-1.47688 0.9707,-2.46094 0.008,-0.16649 0.008,-0.40039 0,-0.5664 a 0.38803881,0.38803881 0 0 0 0,-0.002 c -0.0495,-1.00646 -0.37236,-1.87184 -0.98242,-2.49219 -0.61006,-0.62034 -1.48896,-0.97252 -2.56055,-1.02343 -0.16669,-0.008 -0.4021,-0.006 -0.54688,-0.006 h -0.0332 a 0.38803881,0.38803881 0 0 0 -0.002,0 z m 26.16992,0.0332 c -0.17104,-0.0103 -0.40455,-0.009 -0.57617,0.002 -1.96614,0.12737 -3.31737,1.61625 -3.4336,3.53516 -0.0103,0.17113 -0.009,0.40461 0.002,0.57617 0.11769,1.89948 1.46195,3.40557 3.42969,3.53516 a 0.38803881,0.38803881 0 0 0 0.002,0 c 0.17224,0.0109 0.40459,0.0106 0.57617,0 a 0.38803881,0.38803881 0 0 0 0.002,0 c 1.98908,-0.12776 3.33911,-1.63444 3.45703,-3.53516 0.0109,-0.17218 0.0106,-0.40452 0,-0.57617 -0.11637,-1.9202 -1.46951,-3.41147 -3.45703,-3.53711 a 0.38803881,0.38803881 0 0 0 -0.002,0 z m -26.04687,0.74414 c 0.14302,9e-5 0.32012,-9e-4 0.42382,0.004 0.92571,0.044 1.58845,0.32883 2.04297,0.79101 0.45452,0.46218 0.71915,1.12315 0.76172,1.98828 0.006,0.12583 0.006,0.3649 0,0.49024 -0.0425,0.84273 -0.3025,1.49758 -0.75195,1.95898 -0.44945,0.46141 -1.10498,0.75026 -2.02735,0.79493 -0.10893,0.005 -0.30265,0.006 -0.44921,0.006 z m 25.51953,0.0312 c 0.11995,-0.007 0.35989,-0.007 0.48047,0 1.6408,0.10372 2.63546,1.20876 2.73242,2.8086 0.007,0.12001 0.008,0.36099 0,0.48046 -0.0979,1.57757 -1.09719,2.70344 -2.73438,2.8086 -0.12037,0.007 -0.35966,0.008 -0.47851,0 -1.61203,-0.10617 -2.60933,-1.23176 -2.70703,-2.8086 -0.007,-0.11986 -0.007,-0.35993 0,-0.48046 0.0969,-1.59905 1.09137,-2.70394 2.70703,-2.8086 z"
       id="text2-2-2-9-4-7-4-0-6-2-1-2"
       transform="translate(2.7119122,82.549572)" />
  </g>
</svg>
