<?xml version="1.0" encoding="UTF-8" standalone="no"?>
<!-- Created with Inkscape (http://www.inkscape.org/) -->

<svg
   width="237.04541mm"
   height="43.71043mm"
   viewBox="0 0 237.04541 43.71043"
   version="1.1"
   id="svg1"
   xmlns="http://www.w3.org/2000/svg"
   xmlns:svg="http://www.w3.org/2000/svg">
  <defs
     id="defs1">
    <linearGradient
       id="swatch5">
      <stop
         style="stop-color:#000000;stop-opacity:0;"
         offset="0"
         id="stop5" />
    </linearGradient>
    <rect
       x="283.46457"
       y="113.38582"
       width="472.44095"
       height="113.38582"
       id="rect2-5-6-1-4-7-8-5-4-7-8-1-11-8-6-6" />
    <rect
       x="283.46457"
       y="113.38582"
       width="472.44095"
       height="113.38582"
       id="rect2-5-6-7-8-8-4-2-1-3" />
  </defs>
  <g
     id="layer1"
     transform="translate(-154.82578,-182.7967)">
    <text
       xml:space="preserve"
       transform="matrix(0.64716728,0,0,0.64716728,-29.512448,110.67219)"
       id="text2-2-2-9-4-7-4-0-6-3"
       style="font-size:85.8651px;line-height:0.9;font-family:Noka;-inkscape-font-specification:Noka;text-align:start;letter-spacing:-8.83748px;writing-mode:lr-tb;direction:ltr;white-space:pre;shape-inside:url(#rect2-5-6-7-8-8-4-2-1-3);display:inline;fill:#000000;fill-opacity:1;stroke-width:0.272555"
       x="-67.120132"
       y="0"><tspan
         x="283.46484"
         y="177.78554"
         id="tspan1">STUDIO</tspan></text>
    <path
       id="text2-2-2-0-5-3-0-8-5-2-4-2-7-3-9-9-8"
       style="font-style:normal;font-variant:normal;font-weight:normal;font-stretch:normal;font-size:85.8651px;line-height:0.9;font-family:'Instrument Serif';-inkscape-font-specification:'Instrument Serif, Normal';font-variant-ligatures:normal;font-variant-caps:normal;font-variant-numeric:normal;font-variant-east-asian:normal;text-align:start;letter-spacing:-0.840884px;writing-mode:lr-tb;direction:ltr;white-space:pre;shape-inside:url(#rect2-5-6-1-4-7-8-5-4-7-8-1-11-8-6-6);display:inline;fill:#000000;fill-opacity:1;stroke-width:0.176389"
       d="m 352.57239,182.7967 c -2.2937,0 -4.22463,0.53569 -5.79198,1.60608 -1.56735,1.07037 -2.75182,2.46563 -3.55464,4.18591 -0.76454,1.72027 -1.14701,3.57406 -1.14701,5.56196 v 0.34452 c 0,1.37622 -0.89864,2.15966 -2.69535,2.35082 -0.45875,0.038 -0.68805,0.24901 -0.68805,0.63129 0,0.38229 0.2293,0.5725 0.68805,0.5725 h 1.31931 c 0.91747,0 1.37604,0.45959 1.37604,1.37708 v 22.42003 c 0,0.8028 -0.1338,1.39606 -0.40127,1.77833 -0.26759,0.34405 -0.87936,0.5538 -1.83505,0.63026 l -1.14708,0.11462 c -0.49694,0.0383 -0.74579,0.26854 -0.74579,0.68905 0,0.42053 0.28688,0.63027 0.86031,0.63027 h 10.03565 c 0.5734,0 0.86028,-0.2293 0.86028,-0.68803 0,-0.34405 -0.21077,-0.55483 -0.63129,-0.63129 l -1.43382,-0.1712 c -0.64988,-0.0765 -1.08891,-0.28724 -1.31828,-0.6313 -0.22938,-0.34405 -0.34452,-0.91777 -0.34452,-1.72056 v -23.1081 c 0,-0.45875 0.22928,-0.68906 0.688,-0.68906 h 8.83085 c 0.53517,0 0.80252,0.26836 0.80252,0.80355 V 221.847 c 0,0.80279 -0.13381,1.37652 -0.40129,1.72057 -0.26758,0.30582 -0.87935,0.53513 -1.83504,0.68801 l -0.68803,0.11463 c -0.49697,0.11471 -0.74476,0.34501 -0.74476,0.68906 0,0.42052 0.28585,0.63027 0.85925,0.63027 h 9.29915 0.27747 9.9294 c 0.45873,0 0.68803,-0.20968 0.68803,-0.63027 0,-0.38226 -0.21077,-0.61259 -0.63129,-0.68906 l -1.31829,-0.17121 c -0.8028,-0.11463 -1.33847,-0.32547 -1.60606,-0.63131 -0.22938,-0.34403 -0.34351,-0.91776 -0.34351,-1.72055 v -37.67312 c 0,-0.61165 -0.21075,-0.91804 -0.63128,-0.91804 -0.30585,0 -0.7644,0.1913 -1.37605,0.57351 -0.49696,0.30582 -1.12827,0.61121 -1.89284,0.91702 -0.76458,0.30583 -1.68169,0.5742 -2.75209,0.80358 -0.42051,0.0764 -0.63024,0.30572 -0.63024,0.688 0,0.38229 0.20968,0.61154 0.63024,0.68802 l 1.31934,0.17228 c 0.53517,0.0382 0.89812,0.19044 1.08926,0.45799 0.22938,0.26762 0.34349,0.74573 0.34349,1.43381 v 32.85697 c 0,0.8028 -0.19023,1.37651 -0.57249,1.72056 -0.38229,0.34404 -0.97555,0.57336 -1.77834,0.68804 l -0.54567,0.0774 -1.12541,-0.13425 c -0.64987,-0.0764 -1.08992,-0.28724 -1.31928,-0.63128 -0.22937,-0.34405 -0.34351,-0.91777 -0.34351,-1.72055 V 197.8209 c 0,-0.91749 -0.45959,-1.37602 -1.37707,-1.37602 H 346.6659 c -0.45872,0 -0.688,-0.2293 -0.688,-0.68804 v -3.89913 c 0,-1.94965 0.24881,-3.46005 0.74577,-4.53042 0.53521,-1.0704 1.20352,-1.81584 2.00632,-2.23634 0.84102,-0.42052 1.73966,-0.63027 2.69533,-0.63027 1.10864,0 1.93118,0.26732 2.46639,0.80252 0.53521,0.53523 0.95571,1.16547 1.26153,1.89181 0.34405,0.68813 0.70701,1.29987 1.0893,1.83507 0.38228,0.5352 0.97451,0.80252 1.7773,0.80252 0.80281,0 1.37651,-0.20967 1.72056,-0.63027 0.38229,-0.4587 0.57353,-1.05093 0.57353,-1.77729 0,-1.22332 -0.7074,-2.29362 -2.12182,-3.21111 -1.41444,-0.91748 -3.28779,-1.3771 -5.61972,-1.3771 z m 35.68124,0.3105 c -0.54059,0 -0.99765,0.0761 -1.37193,0.22898 -0.37422,0.15284 -0.76936,0.38222 -1.1852,0.68804 l -8.98244,6.42326 c -0.66534,0.42053 -0.85224,0.83999 -0.56117,1.26051 0.24951,0.4205 0.72794,0.49763 1.43485,0.23005 l 11.10222,-4.64493 c 0.74851,-0.30583 1.24828,-0.63075 1.49776,-0.97479 0.2911,-0.38229 0.43633,-0.82236 0.43633,-1.31933 0,-0.45873 -0.20815,-0.87926 -0.62405,-1.26153 -0.41584,-0.42051 -0.99785,-0.63026 -1.74637,-0.63026 z m -4.61604,12.84448 c -2.03755,0 -3.88725,0.64977 -5.5506,1.94955 -1.66333,1.29974 -2.97367,3.09702 -3.93009,5.39072 -0.95641,2.2937 -1.43482,4.95051 -1.43482,7.97053 0,2.9436 0.45811,5.54282 1.37294,7.79829 0.95641,2.21723 2.22408,3.93737 3.80425,5.16068 1.58015,1.22332 3.36891,1.83506 5.36492,1.83506 2.07917,0 3.84555,-0.66933 5.30096,-2.00731 1.45542,-1.37623 2.51588,-3.76466 3.1812,-7.167 0.12467,-0.76457 -0.062,-1.14706 -0.56112,-1.14706 -0.41583,0 -0.68603,0.20968 -0.81079,0.63026 -0.62375,2.44659 -1.43432,4.18631 -2.43232,5.21844 -0.99798,1.03219 -2.28699,1.54833 -3.86717,1.54833 -1.99598,0 -3.63848,-1.01273 -4.92753,-3.03886 -1.28911,-2.02611 -1.93413,-5.06538 -1.93413,-9.11759 0,-0.87924 0.4165,-1.31931 1.24815,-1.31931 h 11.85111 c 1.03958,0 1.55862,-0.63027 1.55862,-1.89181 0,-4.16688 -0.76894,-7.16812 -2.3075,-9.0031 -1.497,-1.87319 -3.47266,-2.80982 -5.92608,-2.80982 z m -0.0618,1.43379 c 1.33065,0 2.32813,0.7074 2.99347,2.12184 0.66533,1.41443 0.99849,3.36385 0.99849,5.84869 0,1.91144 -0.99849,2.86763 -2.99449,2.86763 h -6.29948 c -0.70691,0 -1.01877,-0.30639 -0.9356,-0.91804 0.33267,-3.17296 1.03965,-5.61898 2.12083,-7.33925 1.12273,-1.72029 2.49503,-2.58087 4.11678,-2.58087 z" />
  </g>
</svg>
