<?xml version="1.0" encoding="UTF-8" standalone="no"?>
<!-- Created with Inkscape (http://www.inkscape.org/) -->

<svg
   width="72.887436mm"
   height="15.625726mm"
   viewBox="0 0 72.887436 15.625726"
   version="1.1"
   id="svg1"
   sodipodi:docname="studiofile_logo.svg"
   inkscape:version="1.4.2 (f4327f4, 2025-05-13)"
   xml:space="preserve"
   xmlns:inkscape="http://www.inkscape.org/namespaces/inkscape"
   xmlns:sodipodi="http://sodipodi.sourceforge.net/DTD/sodipodi-0.dtd"
   xmlns="http://www.w3.org/2000/svg"
   xmlns:svg="http://www.w3.org/2000/svg"><sodipodi:namedview
     id="namedview1"
     pagecolor="#ffffff"
     bordercolor="#000000"
     borderopacity="0.25"
     inkscape:showpageshadow="2"
     inkscape:pageopacity="0.0"
     inkscape:pagecheckerboard="0"
     inkscape:deskcolor="#d1d1d1"
     inkscape:document-units="mm"
     showgrid="true"
     inkscape:zoom="0.35355339"
     inkscape:cx="-2102.9356"
     inkscape:cy="-1387.3435"
     inkscape:window-width="1920"
     inkscape:window-height="1009"
     inkscape:window-x="1912"
     inkscape:window-y="-8"
     inkscape:window-maximized="1"
     inkscape:current-layer="layer1"><inkscape:grid
       id="grid1"
       units="mm"
       originx="-119.85627"
       originy="-209.48491"
       spacingx="0.99999998"
       spacingy="1"
       empcolor="#0099e5"
       empopacity="0.30196078"
       color="#0099e5"
       opacity="0.14901961"
       empspacing="5"
       enabled="true"
       visible="true" /><inkscape:page
       x="0"
       y="0"
       width="72.887436"
       height="15.625726"
       id="page2"
       margin="0"
       bleed="0" /></sodipodi:namedview><defs
     id="defs1"><linearGradient
       id="swatch5"
       inkscape:swatch="solid"><stop
         style="stop-color:#000000;stop-opacity:0;"
         offset="0"
         id="stop5" /></linearGradient><rect
       x="283.46457"
       y="113.38582"
       width="655.05402"
       height="112.70434"
       id="rect2-5-6-7-9-8-2-6-5" /><rect
       x="283.46457"
       y="113.38582"
       width="472.44095"
       height="113.38582"
       id="rect2-5-6-7-8-8-4-2-0-8-0-5-2" /></defs><g
     inkscape:label="Layer 1"
     inkscape:groupmode="layer"
     id="layer1"
     transform="translate(-119.85626,-209.4849)"><path
       id="text2-2-2-9-4-7-4-0-1-6-0-9-7-5-4"
       style="font-style:normal;font-variant:normal;font-weight:normal;font-stretch:normal;font-size:85.8651px;line-height:0.9;font-family:Coolvetica;-inkscape-font-specification:'Coolvetica, Normal';font-variant-ligatures:normal;font-variant-caps:normal;font-variant-numeric:normal;font-variant-east-asian:normal;text-align:start;letter-spacing:-5.57136px;writing-mode:lr-tb;direction:ltr;white-space:pre;shape-inside:url(#rect2-5-6-7-8-8-4-2-0-8-0-5-2);display:inline;fill:none;fill-opacity:1;stroke:#000000;stroke-width:0.264583;stroke-dasharray:none;stroke-opacity:1"
       d="m 125.45106,209.97357 c -0.86064,0 -1.61544,0.10566 -2.26446,0.31729 -0.6349,0.21163 -1.17079,0.50789 -1.60817,0.88883 -0.42327,0.38094 -0.74076,0.83949 -0.95239,1.37563 -0.21164,0.52203 -0.31781,1.10091 -0.31781,1.73581 0,0.88886 0.19767,1.60828 0.59273,2.15853 0.40915,0.53614 0.9946,0.97345 1.75648,1.31206 0.49381,0.22574 1.0373,0.41634 1.62987,0.57154 0.60669,0.14109 1.34734,0.31046 2.22209,0.50798 0.43737,0.0988 0.79682,0.2115 1.079,0.33848 0.28218,0.11288 0.50109,0.24685 0.65629,0.40205 0.16931,0.14109 0.28205,0.29629 0.33848,0.4656 0.0705,0.16931 0.10594,0.35991 0.10594,0.57154 0,0.6349 -0.23963,1.12833 -0.71934,1.48105 -0.46559,0.33861 -1.13597,0.50798 -2.01073,0.50798 -0.94529,0 -1.7001,-0.20424 -2.26446,-0.6134 -0.55025,-0.42327 -0.83943,-0.99507 -0.86764,-1.71462 h -2.83601 c 0.0141,0.79009 0.16932,1.48171 0.46561,2.07429 0.29629,0.57846 0.70528,1.06532 1.22731,1.46037 0.52203,0.39505 1.14287,0.68423 1.86242,0.86765 0.71956,0.19753 1.51683,0.29611 2.39158,0.29611 0.81832,0 1.56605,-0.0915 2.24328,-0.27492 0.69134,-0.16931 1.28386,-0.43726 1.77767,-0.80409 0.50792,-0.36683 0.8962,-0.82538 1.16427,-1.37563 0.0366,-0.0731 0.0705,-0.14809 0.10232,-0.22479 0.15628,0.46076 0.39127,0.86684 0.70435,1.21905 0.35272,0.38094 0.79711,0.68428 1.33325,0.91002 0.53614,0.22575 1.18477,0.339 1.94665,0.339 0.73367,0 1.36158,-0.11325 1.88361,-0.339 0.53614,-0.22574 0.97345,-0.52908 1.31206,-0.91002 0.35273,-0.39505 0.60703,-0.83944 0.76223,-1.33325 0.0326,-0.0979 0.062,-0.19615 0.0884,-0.29559 0.0412,0.21433 0.0972,0.41879 0.16795,0.6134 0.18341,0.46559 0.43013,0.86751 0.74052,1.20613 0.3104,0.33861 0.67744,0.59948 1.10071,0.78289 0.43738,0.18342 0.91716,0.27544 1.43919,0.27544 1.45322,0 2.5326,-0.57888 3.23805,-1.73581 v 1.46037 h 2.60294 v -2.84427 c 0.22192,0.63998 0.51914,1.1861 0.89141,1.63815 0.39506,0.4797 0.86776,0.84623 1.418,1.10019 0.55025,0.25396 1.15693,0.38137 1.82005,0.38137 1.29802,0 2.26415,-0.51517 2.89905,-1.54513 l 0.0212,1.26969 h 2.54196 0.10336 2.64789 v -2.99051 c 8.1e-4,0.002 0.002,0.004 0.003,0.007 0.23985,0.67723 0.58566,1.25559 1.03715,1.73529 0.46559,0.4797 1.0298,0.85383 1.69292,1.1219 0.66312,0.26807 1.41793,0.40204 2.26446,0.40204 0.80421,0 1.5307,-0.12741 2.17971,-0.38137 0.66312,-0.26807 1.22077,-0.64168 1.67225,-1.12138 0.4656,-0.47971 0.81797,-1.05099 1.05782,-1.71411 0.25396,-0.67723 0.38085,-1.43203 0.38085,-2.26446 0,-0.83243 -0.12689,-1.58723 -0.38085,-2.26446 -0.23985,-0.67723 -0.59222,-1.24903 -1.05782,-1.71462 -0.45148,-0.47971 -1.00205,-0.84624 -1.65106,-1.1002 -0.64901,-0.26807 -1.38258,-0.40204 -2.2009,-0.40204 -0.83243,0 -1.58015,0.13397 -2.24327,0.40204 -0.64901,0.25396 -1.20614,0.62049 -1.67174,1.1002 -0.46559,0.4797 -0.82556,1.05858 -1.07952,1.73581 -8e-4,0.002 -0.002,0.004 -0.003,0.007 v -2.96984 h -2.64789 v -1.2485 h 2.64789 v -2.56109 h -2.64789 -0.10336 -2.60552 v 5.16403 c -0.77599,-1.08639 -1.80583,-1.62936 -3.08974,-1.62936 -0.67722,0 -1.2839,0.13397 -1.82004,0.40204 -0.52203,0.25396 -0.96642,0.62049 -1.33325,1.1002 -0.30702,0.40147 -0.55469,0.86737 -0.74311,1.39732 v -2.62464 h -2.73007 v 6.01048 c 0,0.69134 -0.18352,1.26263 -0.55035,1.71411 -0.35272,0.43738 -0.88154,0.65629 -1.58698,0.65629 -1.17104,0 -1.757,-0.64914 -1.757,-1.94717 v -6.43371 h -2.4996 -0.25166 -5.50458 v -2.81482 h -2.70888 v 2.29444 c -0.073,-0.29049 -0.17257,-0.56856 -0.29868,-0.83406 -0.25397,-0.56436 -0.62101,-1.05122 -1.10071,-1.46038 -0.4656,-0.40916 -1.04396,-0.72665 -1.7353,-0.95239 -0.69134,-0.22574 -1.48153,-0.33848 -2.3704,-0.33848 z m 0.0636,2.47633 c 0.88887,0 1.55925,0.17593 2.01073,0.52865 0.45149,0.35272 0.71236,0.88913 0.7829,1.60869 h 2.6479 v 3.74499 c -0.0147,-0.0212 -0.0298,-0.0419 -0.045,-0.0625 -0.19752,-0.26807 -0.43008,-0.49406 -0.69815,-0.67748 -0.26807,-0.18341 -0.55725,-0.3457 -0.86765,-0.48679 -0.52203,-0.23985 -1.14994,-0.45117 -1.8836,-0.63458 -0.71956,-0.19753 -1.48144,-0.39521 -2.28565,-0.59273 -0.7901,-0.19753 -1.35482,-0.43008 -1.69344,-0.69815 -0.3245,-0.26807 -0.48679,-0.62804 -0.48679,-1.07952 0,-0.53614 0.21184,-0.94514 0.6351,-1.22732 0.42327,-0.28218 1.05118,-0.42323 1.88361,-0.42323 z m 8.15041,3.57653 h 5.50457 v 1.60817 h -2.3089 v 2.70888 c 0,0.64901 -0.13397,1.15002 -0.40204,1.50275 -0.25396,0.35272 -0.6564,0.52917 -1.20665,0.52917 -0.56435,0 -0.97335,-0.17645 -1.22731,-0.52917 -0.23985,-0.36683 -0.35967,-0.88201 -0.35967,-1.54513 z m 32.22026,0.10593 c 1.67896,0 2.51871,1.05107 2.51871,3.1533 0,2.11634 -0.83975,3.17448 -2.51871,3.17448 -1.67897,0 -2.5182,-1.05814 -2.5182,-3.17448 0,-2.10223 0.83923,-3.1533 2.5182,-3.1533 z m -12.55479,0.0212 c 1.53787,0 2.30683,1.12841 2.30683,3.38584 0,0.88886 -0.22547,1.60828 -0.67696,2.15853 -0.43738,0.55024 -0.98794,0.82578 -1.65106,0.82578 -0.69134,0 -1.25554,-0.28969 -1.69292,-0.86816 -0.43738,-0.59257 -0.65629,-1.35446 -0.65629,-2.28565 0,-2.14455 0.7902,-3.21634 2.3704,-3.21634 z" /><path
       id="text2-2-2-9-0-7-2-2-8-8-6-3-1-3-7-9-1"
       style="font-style:normal;font-variant:normal;font-weight:normal;font-stretch:normal;font-size:85.8651px;line-height:0.9;font-family:Coolvetica;-inkscape-font-specification:'Coolvetica, Normal';font-variant-ligatures:normal;font-variant-caps:normal;font-variant-numeric:normal;font-variant-east-asian:normal;text-align:start;letter-spacing:-3.14425px;writing-mode:lr-tb;direction:ltr;white-space:pre;shape-inside:url(#rect2-5-6-7-9-8-2-6-5);display:inline;fill:#000000;fill-opacity:1;stroke-width:0.176389"
       d="m 190.26495,209.48491 -4.13995,2.42033 0.54922,0.97156 4.45811,-1.87681 z m -13.26073,0.92987 -0.30491,0.004 c -1.38796,0.0428 -2.41486,0.38585 -3.09264,1.01131 -0.67779,0.62547 -1.02079,1.54061 -1.02079,2.77449 v 0.10606 h -1.57947 v 1.77833 h 1.57947 v 8.65866 h 2.55858 v -8.65866 h 1.99613 v 8.65866 h 2.60025 v -10.43699 h -2.67222 -0.0341 -1.89006 v -0.10606 c 0,-0.30677 0.021,-0.56825 0.0663,-0.78027 0.0629,-0.23627 0.16496,-0.4282 0.3106,-0.57383 0.14773,-0.1477 0.33951,-0.241 0.57383,-0.28787 0.23715,-0.0594 0.54571,-0.087 0.90904,-0.087 h 2.73662 v -2.0605 h -2.36921 -0.3371 z m 3.40515,0 v 14.33265 h 2.60214 v -4.32176 -0.0114 l 0.21211,-0.0114 c 0.16476,1.4617 0.66233,2.54224 1.48478,3.26121 0.82245,0.71897 1.97863,1.08328 3.48658,1.08328 1.08143,0 2.00171,-0.27995 2.77638,-0.83708 0.73923,-0.53166 1.267,-1.27769 1.58705,-2.24989 h -2.57185 c -0.1153,0.35341 -0.34802,0.63382 -0.69316,0.84087 -0.35394,0.20644 -0.76345,0.3068 -1.22531,0.3068 -0.69681,0 -1.26901,-0.24033 -1.70825,-0.72344 -0.42439,-0.48284 -0.65039,-1.12597 -0.69314,-1.92416 l -0.006,-0.11174 h 7.083 c -0.0141,-1.97815 -0.4229,-3.45053 -1.20828,-4.42214 -0.39374,-0.49549 -0.8793,-0.8642 -1.46205,-1.11168 -0.58275,-0.24748 -1.26317,-0.3731 -2.04535,-0.3731 -0.78227,0 -1.47226,0.12482 -2.06997,0.36931 -0.6008,0.23213 -1.10776,0.57123 -1.52834,1.01889 -0.40633,0.44693 -0.72084,0.98351 -0.93935,1.61167 -0.12469,0.35839 -0.21335,0.74043 -0.26705,1.14957 l -0.21211,-0.0133 v -0.0133 -7.85002 z m 7.53373,5.6664 c 0.27806,0 0.54754,0.0511 0.81056,0.15341 0.26266,0.0873 0.50002,0.2349 0.70641,0.44126 0.20597,0.19114 0.36841,0.44251 0.48482,0.74807 0.12967,0.28763 0.19969,0.62859 0.21401,1.01511 l 0.004,0.10984 h -4.42213 l 0.009,-0.11363 c 0.0572,-0.72904 0.28511,-1.30594 0.69694,-1.71773 0.42227,-0.42222 0.92444,-0.63633 1.49614,-0.63633 z"
       sodipodi:nodetypes="ccccccccccccccccccccccscscccccccccsscccsccccsccscccscccccss" /></g></svg>
