<?xml version="1.0" encoding="UTF-8" standalone="no"?>
<!-- Created with Inkscape (http://www.inkscape.org/) -->
   <!-- width="85.054932mm"
   height="15.740239mm" -->
<svg

   viewBox="-.3 0 86.054932 15.740239"
   version="1.1"
   id="svg1"
   sodipodi:docname="studiofile_logo.svg"
   inkscape:version="1.4.2 (f4327f4, 2025-05-13)"
   xml:space="preserve"
   xmlns:inkscape="http://www.inkscape.org/namespaces/inkscape"
   xmlns:sodipodi="http://sodipodi.sourceforge.net/DTD/sodipodi-0.dtd"
   xmlns="http://www.w3.org/2000/svg"
   xmlns:svg="http://www.w3.org/2000/svg"><sodipodi:namedview
     id="namedview1"
     pagecolor="#ffffff"
     bordercolor="#000000"
     borderopacity="0.25"
     inkscape:showpageshadow="2"
     inkscape:pageopacity="0.0"
     inkscape:pagecheckerboard="0"
     inkscape:deskcolor="#d1d1d1"
     inkscape:document-units="mm"
     showgrid="true"
     inkscape:zoom="0.70710678"
     inkscape:cx="337.28993"
     inkscape:cy="396.6869"
     inkscape:window-width="1920"
     inkscape:window-height="1009"
     inkscape:window-x="1912"
     inkscape:window-y="-8"
     inkscape:window-maximized="1"
     inkscape:current-layer="layer1"><inkscape:grid
       id="grid1"
       units="mm"
       originx="-21.397858"
       originy="-84.290006"
       spacingx="0.99999998"
       spacingy="1"
       empcolor="#0099e5"
       empopacity="0.30196078"
       color="#0099e5"
       opacity="0.14901961"
       empspacing="5"
       enabled="true"
       visible="true" /><inkscape:page
       x="0"
       y="3.1910965e-15"
       width="85.054932"
       height="15.740238"
       id="page2"
       margin="0"
       bleed="0" /></sodipodi:namedview><defs
     id="defs1"><inkscape:path-effect
       effect="offset"
       id="path-effect16"
       is_visible="true"
       lpeversion="1.3"
       linejoin_type="miter"
       unit="mm"
       offset="-0.1"
       miter_limit="4"
       attempt_force_join="false"
       update_on_knot_move="true" /><linearGradient
       id="swatch5"
       inkscape:swatch="solid"><stop
         style="stop-color:#000000;stop-opacity:0;"
         offset="0"
         id="stop5" /></linearGradient><rect
       x="283.46457"
       y="113.38582"
       width="655.05402"
       height="112.70434"
       id="rect2-5-6-7-9-8-2-6-5" /><rect
       x="283.46457"
       y="113.38582"
       width="472.44095"
       height="113.38582"
       id="rect2-5-6-7-8-8-4-2-1-8-0" /><inkscape:path-effect
       effect="offset"
       id="path-effect15-5"
       is_visible="true"
       lpeversion="1.3"
       linejoin_type="miter"
       unit="mm"
       offset="-0.1"
       miter_limit="4"
       attempt_force_join="false"
       update_on_knot_move="true" /></defs><g
     inkscape:label="Layer 1"
     inkscape:groupmode="layer"
     id="layer1"
     transform="translate(-21.397858,-84.290011)"><path
       id="text2-2-2-9-4-7-4-0-6-3-0"
       style="font-size:85.8651px;line-height:0.9;font-family:Noka;-inkscape-font-specification:Noka;text-align:start;letter-spacing:-8.83748px;writing-mode:lr-tb;direction:ltr;white-space:pre;shape-inside:url(#rect2-5-6-7-8-8-4-2-1-8-0);display:inline;fill:none;fill-opacity:1;stroke:currentColor;stroke-width:2.5;stroke-dasharray:none;stroke-opacity:1"
       d="m 533.79492,112.63867 c -13.84935,0 -24.83237,6.4221 -30.43359,16.45313 l -0.85352,1.52734 V 113.8418 h -22.61719 v 16.62304 l -0.8496,-1.48632 c -2.66528,-4.65874 -6.59236,-8.43493 -11.6504,-11.05469 -5.05803,-2.61977 -11.25091,-4.08203 -18.44335,-4.08203 h -22.07422 -3.08594 -19.98633 v 38.78515 c 0,3.47493 -1.96752,6.1211 -5.17773,6.1211 -3.21021,0 -5.17774,-2.64617 -5.17774,-6.1211 V 113.8418 h -19.1289 -3.94336 -34.44532 -3.25586 -26.02343 c -6.56054,0 -11.88998,2.02606 -15.58399,5.5 -3.694,3.47394 -5.77148,8.40537 -5.77148,14.30859 0,5.90321 2.07748,10.83465 5.77148,14.30859 3.69401,3.47395 9.02345,5.5 15.58399,5.5 h 3.77734 c 2.91672,0 3.97656,1.66595 3.97656,3.20313 0,1.4608 -1.06829,3.11719 -4.0625,3.11719 h -23.75781 v 17.55078 h 29.76953 c 6.6844,0 12.05417,-2.17283 15.76172,-5.77539 3.70755,-3.60257 5.76563,-8.646 5.76563,-14.46289 0,-5.77318 -2.05801,-10.79654 -5.76563,-14.38868 -3.70762,-3.59213 -9.07732,-5.76367 -15.76172,-5.76367 h -3.26367 c -2.25643,0 -3.7168,-1.09211 -3.7168,-2.77343 0,-1.76623 1.45692,-2.77344 3.7168,-2.77344 h 19.58398 3.25586 6.30079 v 45.9375 h 22.61718 v -45.9375 h 5.98242 v 20.20312 c 0,8.3141 2.74733,15.02751 7.57813,19.67969 4.8308,4.65219 11.76705,7.25781 20.2168,7.25781 5.84284,0 10.95133,-1.23649 15.13672,-3.51953 4.18538,-2.28303 7.45256,-5.61146 9.62304,-9.83203 l 0.85938,0.20898 v 11.93946 h 24.78906 c 7.14033,0 13.30923,-1.49198 18.35742,-4.16992 5.0482,-2.67795 8.9799,-6.54099 11.65039,-11.31055 l 0.85156,-1.52344 v 17.00391 h 22.61719 v -15.39844 l 0.85547,-0.21875 c 5.60356,10.24264 16.58578,16.82031 30.43164,16.82031 10.19819,0 18.83461,-3.54271 24.92774,-9.46679 6.09312,-5.92409 9.65039,-14.2343 9.65039,-23.82422 0,-9.41616 -3.55635,-17.55163 -9.64844,-23.34766 -6.09209,-5.79602 -14.72897,-9.25586 -24.92969,-9.25586 z m -87.79297,20.90235 h 2.34375 c 7.81504,0 11.96094,4.58435 11.96094,11.87304 0,7.11215 -4.0601,11.79102 -11.875,11.79102 h -2.42969 z m 87.79297,0.084 c 7.13048,0 11.70313,5.10503 11.70313,11.96094 0,6.76888 -4.57229,11.96094 -11.70313,11.96093 -7.04384,0 -11.61914,-5.19525 -11.61914,-11.96093 0,-6.85267 4.57574,-11.96094 11.61914,-11.96094 z"
       transform="matrix(0.22454069,0,0,0.22454069,-42.662021,59.809987)"
       inkscape:path-effect="#path-effect16"
       inkscape:original-d="m 533.79571,112.18453 c -13.9905,0 -25.14763,6.505 -30.83224,16.68536 v -15.48401 h -23.5275 v 15.36664 c -5.4168,-9.46821 -15.98104,-15.36664 -30.48932,-15.36664 h -22.073 -3.08622 -20.44129 v 39.24166 c 0,3.26287 -1.80311,5.66611 -4.72253,5.66611 -2.91941,0 -4.72253,-2.40324 -4.72253,-5.66611 v -39.24166 h -19.58515 -3.94235 -34.44548 -3.25652 -26.02225 c -13.30909,0 -21.81064,8.24296 -21.81064,20.26408 0,12.02111 8.50155,20.26407 21.81064,20.26407 h 3.77664 c 2.66182,0 3.52119,1.45993 3.52119,2.74791 0,1.20211 -0.85866,2.66275 -3.60634,2.66275 h -24.21333 v 18.45976 h 30.22466 c 13.56669,0 21.98094,-8.84276 21.98094,-20.69214 0,-11.76352 -8.41425,-20.60699 -21.98094,-20.60699 h -3.26342 c -2.06077,0 -3.26343,-0.946 -3.26343,-2.31984 0,-1.45971 1.20266,-2.31754 3.26343,-2.31754 h 19.58285 3.25652 5.84563 v 45.93651 h 23.5275 v -45.93651 h 5.07235 v 19.74856 c 0,16.82955 11.16288,27.3916 28.25003,27.3916 11.81412,0 20.74168,-4.99787 25.16382,-13.59684 v 12.39319 h 25.24437 c 14.40759,0 24.9793,-6.0229 30.40417,-15.71185 v 15.71185 h 23.5275 v -15.85224 c 5.68461,10.39079 16.84174,17.05589 30.83224,17.05589 20.60762,0 35.03234,-14.34034 35.03234,-33.74585 0,-19.06205 -14.42472,-33.05772 -35.03234,-33.05772 z m -87.33921,21.81064 h 1.88947 c 7.55613,0 11.50485,4.37875 11.50485,11.41969 0,6.86921 -3.86356,11.33453 -11.41969,11.33453 h -1.97463 z m 87.33921,0.0851 c 6.86921,0 11.24708,4.89323 11.24708,11.50484 0,6.52575 -4.37787,11.50715 -11.24708,11.50715 -6.78334,0 -11.16423,-4.9814 -11.16423,-11.50715 0,-6.61161 4.38089,-11.50484 11.16423,-11.50484 z" /><path
       id="text2-2-2-9-0-7-2-2-8-8-6-3-1-3-7-9-2"
       style="font-style:normal;font-variant:normal;font-weight:normal;font-stretch:normal;font-size:85.8651px;line-height:0.9;font-family:Coolvetica;-inkscape-font-specification:'Coolvetica, Normal';font-variant-ligatures:normal;font-variant-caps:normal;font-variant-numeric:normal;font-variant-east-asian:normal;text-align:start;letter-spacing:-3.14425px;writing-mode:lr-tb;direction:ltr;white-space:pre;shape-inside:url(#rect2-5-6-7-9-8-2-6-5);display:inline;fill:currenColor;fill-opacity:1;stroke-width:0.176389"
       d="m 86.341797,108.83984 -4.269531,2.4961 0.566406,1.00195 4.597656,-1.93555 z m -13.675781,0.95899 -0.314454,0.004 c -1.431406,0.0441 -2.490452,0.39794 -3.189453,1.04297 -0.699,0.64504 -1.052734,1.58884 -1.052734,2.86133 v 0.10938 h -1.628906 v 1.83398 h 1.628906 v 8.92969 h 2.638672 v -8.92969 h 2.058594 v 8.92969 h 2.68164 v -10.76367 h -2.755859 -0.03516 -1.949219 v -0.10938 c 0,-0.31638 0.02155,-0.58603 0.06836,-0.80469 0.06482,-0.24368 0.170114,-0.44162 0.320313,-0.59179 0.15235,-0.15233 0.350143,-0.24855 0.591797,-0.29688 0.244568,-0.0612 0.562784,-0.0898 0.9375,-0.0898 h 2.822265 v -2.125 h -2.443359 -0.347656 z m 3.511718,0 v 14.78125 h 2.683594 v -4.45703 -0.0117 l 0.21875,-0.0117 c 0.169913,1.50745 0.683059,2.62181 1.53125,3.36328 0.848191,0.74148 2.040556,1.11719 3.595703,1.11719 1.115279,0 2.064377,-0.28872 2.863281,-0.86328 0.762375,-0.54831 1.30666,-1.31769 1.636719,-2.32032 h -2.652344 c -0.118909,0.36447 -0.358906,0.65366 -0.714843,0.86719 -0.365028,0.21292 -0.787356,0.31641 -1.263672,0.31641 -0.718623,0 -1.308724,-0.24786 -1.761719,-0.7461 -0.437672,-0.49794 -0.670744,-1.16121 -0.714844,-1.98437 l -0.0059,-0.11523 h 7.304687 c -0.01459,-2.04007 -0.436132,-3.55855 -1.246093,-4.56055 -0.40606,-0.51101 -0.906827,-0.89126 -1.507813,-1.14649 -0.600986,-0.25523 -1.302704,-0.38476 -2.109375,-0.38476 -0.806748,0 -1.518333,0.12872 -2.134765,0.38086 -0.619596,0.23938 -1.142415,0.58911 -1.576172,1.05078 -0.41904,0.46091 -0.743397,1.0143 -0.96875,1.66211 -0.128584,0.36961 -0.220025,0.76361 -0.275391,1.18555 l -0.21875,-0.0137 v -0.0137 -8.0957 z m 7.769532,5.84375 c 0.28677,0 0.564692,0.0527 0.835937,0.1582 0.270877,0.0901 0.515659,0.24225 0.728516,0.45508 0.212425,0.19713 0.379941,0.45636 0.5,0.77148 0.133722,0.29664 0.205935,0.64826 0.220703,1.04688 l 0.0039,0.11328 h -4.560547 l 0.0098,-0.11719 c 0.05894,-0.75186 0.294027,-1.34681 0.71875,-1.77148 0.435498,-0.43545 0.953377,-0.65625 1.542969,-0.65625 z"
       inkscape:path-effect="#path-effect15-5"
       inkscape:original-d="m 86.381845,108.68899 -4.45865,2.60552 0.66766,1.18443 4.802809,-2.02417 z m -13.716452,0.99994 -0.31626,0.005 c -2.89954,0.0893 -4.349597,1.42708 -4.349597,4.01319 h -1.629357 v 2.0531 h 1.629357 v 8.92913 h 2.857707 v -8.92947 h 1.83916 v 8.92917 h 2.90214 v -10.98228 h -2.86648 -0.0357 -1.83912 c 0,-0.3125 0.0226,-0.57301 0.0672,-0.78135 0.0595,-0.22321 0.15595,-0.40195 0.2899,-0.53588 0.13395,-0.13393 0.31264,-0.22304 0.53588,-0.26769 0.23812,-0.0595 0.54312,-0.0894 0.91519,-0.0894 h 2.93315 v -2.34352 h -2.55436 -0.34778 z m 3.403913,0 v 15.00012 h 2.90214 v -4.57802 c 0.34401,3.05202 2.088949,4.57802 5.234819,4.57802 1.1343,0 2.1106,-0.29455 2.929019,-0.88315 0.81842,-0.58861 1.39265,-1.42816 1.72289,-2.51923 h -2.885609 c -0.10051,0.37326 -0.33041,0.66729 -0.68936,0.88263 -0.3446,0.20099 -0.74667,0.30179 -1.20613,0.30179 -0.6892,0 -1.24926,-0.23679 -1.68,-0.71055 -0.41639,-0.47375 -0.64578,-1.11273 -0.68885,-1.91668 h 7.300849 c 0,-2.11036 -0.42359,-3.68969 -1.27073,-4.73769 -0.832769,-1.04801 -2.067329,-1.572 -3.704159,-1.572 -0.81842,0 -1.54382,0.12916 -2.17558,0.38757 -0.63176,0.24406 -1.170299,0.60319 -1.615409,1.07694 -0.43074,0.47376 -0.7609,1.0408 -0.99063,1.70119 -0.13123,0.37722 -0.22486,0.77996 -0.28112,1.20871 v -8.21965 z m 7.878579,6.06319 c 0.2728,0 0.5384,0.0504 0.79685,0.1509 0.25844,0.0861 0.48835,0.22948 0.68936,0.43046 0.20102,0.18664 0.35901,0.43078 0.47387,0.73226 0.12923,0.28712 0.20062,0.62472 0.21498,1.01234 h -4.32894 c 0.0574,-0.73217 0.28734,-1.29921 0.68937,-1.70119 0.41638,-0.41633 0.90454,-0.62477 1.46451,-0.62477 z"
       sodipodi:nodetypes="ccccccccccccccccccccccscscccccccccsscccsccccsccscccscccccss"
       transform="translate(17.554347,-24.549831)" /></g></svg>
